<svg xmlns="http://www.w3.org/2000/svg" width="104" height="59"><g><title>background</title><rect id="canvas_background" width="106" height="61" x="-1" y="-1" fill="none"/><g id="canvasGrid" width="100%" height="100%" x="0" y="0" display="none"><rect width="100%" height="100%" x="0" y="0" fill="url(#gridpattern)" stroke-width="0"/></g></g><g><title>Layer 1</title><path id="svg_1" fill="#fff" stroke="#000" stroke-width="3" d="m51.355396,4.379648c-25.993488,0 -46.500661,25.187555 -46.500661,25.187555s20.507173,25.187439 46.500661,25.187439c19.876225,0 46.500813,-25.187439 46.500813,-25.187439s-26.624588,-25.187555 -46.500813,-25.187555zm0,40.879923c-9.123592,0 -16.56012,-7.04414 -16.56012,-15.692368s7.436527,-15.697368 16.56012,-15.697368s16.555279,7.049016 16.555279,15.697368s-7.431667,15.692368 -16.555279,15.692368zm0,-24.853777c-5.333912,0 -9.665257,4.099897 -9.665257,9.161409c0,5.061291 4.325668,9.161327 9.665257,9.161327c5.339787,0 9.665245,-4.100037 9.665245,-9.161327c0,-5.056374 -4.325459,-9.161409 -9.665245,-9.161409z"/></g></svg>