<svg xmlns="http://www.w3.org/2000/svg" xmlns:svg="http://www.w3.org/2000/svg" id="svg3000" width="55" height="54.696" version="1.1" viewBox="0 0 55 54.696" xml:space="preserve"><metadata id="metadata3021"/><rect id="rect3005" width="55" height="55" x="0" y="-.304" fill="#282828" fill-opacity="1" stroke="none"/><g id="g3918" transform="translate(-1.1206348,-0.06663089)"><rect id="rect3791-6" width="20" height="14" x="7.559" y="20.415" fill="#606060" fill-opacity="1" stroke="none"/><rect id="rect3791-6-8" width="20" height="14" x="29.682" y="36.089" fill="silver" fill-opacity="1" stroke="none"/><rect id="rect3791-6-4" width="20" height="14" x="7.559" y="36.089" fill="#606060" fill-opacity="1" stroke="none"/><rect id="rect3791-6-41" width="20" height="14" x="29.682" y="20.415" fill="#606060" fill-opacity="1" stroke="none"/><rect id="rect3791-6-9" width="20" height="14" x="29.682" y="4.74" fill="#606060" fill-opacity="1" stroke="none"/><rect id="rect3791-6-6" width="20" height="14" x="7.559" y="4.74" fill="silver" fill-opacity="1" stroke="none"/></g><g id="g3827" stroke="#fff" stroke-opacity="1" transform="translate(1.745311,0.5838585)"><polyline id="polyline4774" fill="none" stroke="#fff" stroke-linecap="round" stroke-linejoin="round" stroke-opacity="1" stroke-width="3.5" points="51.562 15.306 41.17 16.188 42.053 5.794" transform="matrix(0.75663262,0.74365257,-0.75663262,0.74365257,-0.33007478,-30.718962)"/><path id="path4776" fill="none" stroke="#fff" stroke-dasharray="none" stroke-linecap="round" stroke-linejoin="round" stroke-miterlimit="4" stroke-opacity="1" stroke-width="3.996" d="m 22.404268,11.955483 15.981904,0.08932 0.108035,27.867953"/><polyline id="polyline4774-6" fill="none" stroke="#fff" stroke-linecap="round" stroke-linejoin="round" stroke-opacity="1" stroke-width="3.5" points="51.562 15.306 41.17 16.188 42.053 5.794" transform="matrix(-0.75663262,-0.74365257,0.75663262,-0.74365257,51.839353,84.247245)"/><path id="path4776-0" fill="none" stroke="#fff" stroke-dasharray="none" stroke-linecap="round" stroke-linejoin="round" stroke-miterlimit="4" stroke-opacity="1" stroke-width="3.996" d="M 29.10511,41.572799 13.123206,41.483479 13.015171,13.615526"/></g></svg>