<svg xmlns="http://www.w3.org/2000/svg" xmlns:svg="http://www.w3.org/2000/svg" id="svg2" width="55" height="55" version="1.1" viewBox="0 0 55 55" xml:space="preserve"><metadata id="metadata21"/><path id="path821" fill="#fff" fill-opacity="1" stroke="none" stroke-dasharray="none" stroke-dashoffset="0" stroke-miterlimit="4" stroke-opacity="1" stroke-width="1.464" d="M 28.062562,3.9002076 A 24,24 0 0 0 4.0625611,27.900207 a 24,24 0 0 0 24.0000009,24 24,24 0 0 0 24,-24 24,24 0 0 0 -24,-23.9999994 z m 0.203124,8.6093744 A 15.577024,15.577024 0 0 1 42.714905,24.042785 15.577024,15.577024 0 0 1 31.701233,43.122863 15.577024,15.577024 0 0 1 30.468812,43.388489 L 29.76178,40.747863 a 12.498622,12.498622 0 0 0 1.359375,-0.269531 12.498622,12.498622 0 0 0 8.837891,-15.30664 12.498622,12.498622 0 0 0 -15.308594,-8.837891 12.498622,12.498622 0 0 0 -9.179687,10.732422 h 3.824218 L 15.01764,34.12091 7.6328736,27.066223 h 4.5234384 a 15.577024,15.577024 0 0 1 11.482421,-14.03711 15.577024,15.577024 0 0 1 4.626953,-0.519531 z"/></svg>