<svg xmlns="http://www.w3.org/2000/svg" xmlns:svg="http://www.w3.org/2000/svg" id="svg2" width="55" height="55" version="1.1"><metadata id="metadata18"/><g id="g3026" transform="matrix(1.1617464,0,0,1.1617464,-2.9659577,-5.0973562)"><path id="path3050-5" fill="#fff" fill-opacity="1" fill-rule="nonzero" stroke="#000" stroke-dasharray="none" stroke-linecap="round" stroke-miterlimit="4" stroke-opacity="1" stroke-width="2" d="m 46.898443,21.903355 a 8.6731412,8.6120624 0 0 1 -17.346282,0 8.6731412,8.6120624 0 1 1 17.346282,0 z"/><path id="path3820-9" fill="#fff" stroke="#fff" stroke-dasharray="none" stroke-linecap="round" stroke-linejoin="miter" stroke-miterlimit="4" stroke-opacity="1" stroke-width="2" d="m 33.041751,17.577533 -5.24237,-4.679409"/><path id="path3824-8" fill="#fff" stroke="#fff" stroke-dasharray="none" stroke-linecap="round" stroke-linejoin="miter" stroke-miterlimit="4" stroke-opacity="1" stroke-width="2" d="M 35.537938,15.723966 31.734926,9.3555712"/><path id="path3828-1" fill="#fff" stroke="#fff" stroke-dasharray="none" stroke-linecap="round" stroke-linejoin="miter" stroke-miterlimit="4" stroke-opacity="1" stroke-width="2" d="M 38.311611,14.789196 38.267793,8.2933322"/><path id="path3832-9" fill="#fff" stroke="#fff" stroke-dasharray="none" stroke-linecap="round" stroke-linejoin="miter" stroke-miterlimit="4" stroke-opacity="1" stroke-width="2" d="m 41.411936,15.346839 3.12312,-5.3910497"/><path id="path3836-5" fill="#fff" stroke="#fff" stroke-dasharray="none" stroke-linecap="round" stroke-linejoin="miter" stroke-miterlimit="4" stroke-opacity="1" stroke-width="2" d="M 44.173728,17.269417 48.895534,13.78517"/><path id="path3050" fill="#fff" fill-opacity="1" fill-rule="nonzero" stroke="#000" stroke-dasharray="none" stroke-linecap="round" stroke-miterlimit="4" stroke-opacity="1" stroke-width="2" d="m 22.864546,21.903355 a 8.6731413,8.6120624 0 0 1 -17.3462825,0 8.6731413,8.6120624 0 1 1 17.3462825,0 z"/><path id="path3820" fill="#fff" stroke="#fff" stroke-dasharray="none" stroke-linecap="round" stroke-linejoin="miter" stroke-miterlimit="4" stroke-opacity="1" stroke-width="2" d="M 8.2004814,17.02512 3.5530165,13.620509"/><path id="path3824" fill="#fff" stroke="#fff" stroke-dasharray="none" stroke-linecap="round" stroke-linejoin="miter" stroke-miterlimit="4" stroke-opacity="1" stroke-width="2" d="M 11.121602,15.129061 8.0834676,9.483051"/><path id="path3828" fill="#fff" stroke="#fff" stroke-dasharray="none" stroke-linecap="round" stroke-linejoin="miter" stroke-miterlimit="4" stroke-opacity="1" stroke-width="2" d="M 14.320208,14.534236 14.191402,8.420812"/><path id="path3832" fill="#fff" stroke="#fff" stroke-dasharray="none" stroke-linecap="round" stroke-linejoin="miter" stroke-miterlimit="4" stroke-opacity="1" stroke-width="2" d="M 17.250559,15.474319 20.671132,8.9784442"/><path id="path3836" fill="#fff" stroke="#fff" stroke-dasharray="none" stroke-linecap="round" stroke-linejoin="miter" stroke-miterlimit="4" stroke-opacity="1" stroke-width="2" d="m 20.012351,17.43939 5.146738,-4.249126"/><circle id="circle8" cx="17" cy="15" r="2" fill="#fff" stroke="#000" stroke-width="3.5" transform="translate(0,5)"/><circle id="circle10" cx="41" cy="15" r="2" fill="#fff" stroke="#000" stroke-width="3.5" transform="translate(0,5)"/></g></svg>