<svg xmlns="http://www.w3.org/2000/svg" xmlns:svg="http://www.w3.org/2000/svg" id="svg2" width="50" height="50" version="1.1"><metadata id="metadata17"/><path id="path2468" fill="#fff2f2" fill-opacity="1" stroke="#010101" stroke-dasharray="none" stroke-miterlimit="4" stroke-width="2" d="m 7.7871373,45.936639 c 0.656039,1.243688 5.7975727,0.0637 7.9321037,-1.579441 2.021984,-1.545974 3.084921,-2.802618 4.170944,-2.802618 1.089871,0 12.062648,0.993223 20.138081,-6.169863 6.949967,-6.161226 9.400977,-14.8854 4.347936,-23.143191 C 39.324131,3.9891325 31.07074,2.4388395 24.292955,3.0002275 15.043002,3.7742935 2.9399533,11.944637 3.3757093,24.255214 c 0.253951,7.245135 3.229211,9.8707 4.734637,11.554862 1.502541,1.690639 4.3719877,1.690639 2.8781057,6.032755 -0.58678,1.704673 -3.6919007,3.150245 -3.2013147,4.093808 z" display="inline"/><ellipse id="ellipse4" cx="12" cy="12" fill="#fff" stroke="#010101" stroke-dasharray="none" stroke-miterlimit="4" stroke-width="3.087" rx="10" ry="10" transform="matrix(0.6477914,0,0,0.6477914,10.158787,8.6181926)"/><ellipse id="ellipse6" cx="36" cy="12" fill="#fff" stroke="#010101" stroke-dasharray="none" stroke-miterlimit="4" stroke-width="3.087" rx="10" ry="10" transform="matrix(0.6477914,0,0,0.6477914,10.158787,8.6181926)"/><circle id="circle8" cx="16" cy="10" r="2" fill="#fff" stroke="#010101" stroke-dasharray="none" stroke-miterlimit="4" stroke-width="3.396" transform="matrix(0.6477914,0,0,0.6477914,9.7794379,8.6181926)"/><circle id="circle10" cx="40" cy="10" r="2" fill="#fff" stroke="#010101" stroke-dasharray="none" stroke-miterlimit="4" stroke-width="3.396" transform="matrix(0.6477914,0,0,0.6477914,9.8553077,8.6940624)"/><path id="path3304" fill="none" stroke="#010101" stroke-dasharray="none" stroke-dashoffset="0" stroke-linecap="butt" stroke-linejoin="miter" stroke-miterlimit="4" stroke-opacity="1" stroke-width="2.47" d="m 42.271638,-34.758097 a 27.896996,19.957081 0 0 1 -51.3400478,0.986253" display="inline" enable-background="accumulate" overflow="visible" transform="matrix(0.6789713,0,0,0.9654291,13.305764,57.674017)" visibility="visible" style="marker:none"/></svg>