<svg xmlns="http://www.w3.org/2000/svg" xmlns:svg="http://www.w3.org/2000/svg" id="svg2" width="55" height="55" version="1.0"><rect id="rect3687" width="3.666" height="9.544" x="-42.846" y="-15.126" fill="#000" fill-opacity="1" fill-rule="nonzero" stroke="#fff" stroke-dasharray="none" stroke-dashoffset="0" stroke-linejoin="round" stroke-miterlimit="4" stroke-opacity="1" stroke-width="1.728" transform="matrix(-0.89091996,-0.45416035,-0.40870649,0.91266588,0,0)"/><rect id="rect3685" width="3.666" height="9.544" x="7.001" y="9.679" fill="#000" fill-opacity="1" fill-rule="nonzero" stroke="#fff" stroke-dasharray="none" stroke-dashoffset="0" stroke-linejoin="round" stroke-miterlimit="4" stroke-opacity="1" stroke-width="1.728" transform="matrix(0.89091996,-0.45416035,0.40870649,0.91266588,0,0)"/><rect id="rect1919" width="37.611" height="40.772" x="8.694" y="9.869" fill="#000" fill-opacity="1" fill-rule="nonzero" stroke="#fff" stroke-dasharray="none" stroke-dashoffset="0" stroke-linejoin="round" stroke-miterlimit="4" stroke-opacity="1" stroke-width="2.467"/><path id="path2794" fill="#000" fill-opacity="1" fill-rule="nonzero" stroke="#fff" stroke-dasharray="none" stroke-dashoffset="0" stroke-linejoin="round" stroke-miterlimit="4" stroke-opacity="1" stroke-width="1.48" d="m 25.841115,21.968429 a 6.4093275,6.355592 0 0 1 -12.818655,0 6.4093275,6.355592 0 1 1 12.818655,0 z"/><path id="path3669" fill="#000" fill-opacity="1" fill-rule="nonzero" stroke="#fff" stroke-dasharray="none" stroke-dashoffset="0" stroke-linejoin="round" stroke-miterlimit="4" stroke-opacity="1" stroke-width="1.48" d="m 42.429962,22.053175 a 6.4093275,6.355592 0 0 1 -12.818655,0 6.4093275,6.355592 0 1 1 12.818655,0 z"/><rect id="rect3679" width="27.792" height="6.811" x="14.057" y="39.38" fill="#000" fill-opacity="1" fill-rule="nonzero" stroke="#fff" stroke-dasharray="none" stroke-dashoffset="0" stroke-linejoin="round" stroke-miterlimit="4" stroke-opacity="1" stroke-width="1.46" ry="0"/><path id="path2822" fill="none" stroke="#fff" stroke-linecap="butt" stroke-linejoin="miter" stroke-opacity="1" stroke-width="1" d="m 12.817797,23 c 13.050847,0.23305 13.050847,0 13.050847,0"/><path id="path2822-4" fill="none" stroke="#fff" stroke-linecap="butt" stroke-linejoin="miter" stroke-opacity="1" stroke-width="1" d="m 29.597458,23 c 13.050847,0.23305 13.050847,0 13.050847,0"/></svg>