<svg xmlns="http://www.w3.org/2000/svg" xmlns:svg="http://www.w3.org/2000/svg" id="svg2" width="55" height="55" version="1.0"><rect id="rect3687" width="3.666" height="9.544" x="-42.846" y="-15.126" fill="#000" fill-opacity="1" fill-rule="nonzero" stroke="#fff" stroke-dasharray="none" stroke-dashoffset="0" stroke-linejoin="round" stroke-miterlimit="4" stroke-opacity="1" stroke-width="1.728" transform="matrix(-0.89091996,-0.45416035,-0.40870649,0.91266588,0,0)"/><rect id="rect3685" width="3.666" height="9.544" x="7.001" y="9.679" fill="#000" fill-opacity="1" fill-rule="nonzero" stroke="#fff" stroke-dasharray="none" stroke-dashoffset="0" stroke-linejoin="round" stroke-miterlimit="4" stroke-opacity="1" stroke-width="1.728" transform="matrix(0.89091996,-0.45416035,0.40870649,0.91266588,0,0)"/><rect id="rect1919" width="37.611" height="40.772" x="8.694" y="9.869" fill="#000" fill-opacity="1" fill-rule="nonzero" stroke="#fff" stroke-dasharray="none" stroke-dashoffset="0" stroke-linejoin="round" stroke-miterlimit="4" stroke-opacity="1" stroke-width="2.467"/><path id="path2794" fill="#000" fill-opacity="1" fill-rule="nonzero" stroke="#fff" stroke-dasharray="none" stroke-dashoffset="0" stroke-linejoin="round" stroke-miterlimit="4" stroke-opacity="1" stroke-width="1.48" d="m 25.841115,21.968429 a 6.4093275,6.355592 0 0 1 -12.818655,0 6.4093275,6.355592 0 1 1 12.818655,0 z"/><path id="path3669" fill="#000" fill-opacity="1" fill-rule="nonzero" stroke="#fff" stroke-dasharray="none" stroke-dashoffset="0" stroke-linejoin="round" stroke-miterlimit="4" stroke-opacity="1" stroke-width="1.48" d="m 42.429962,22.053175 a 6.4093275,6.355592 0 0 1 -12.818655,0 6.4093275,6.355592 0 1 1 12.818655,0 z"/><rect id="rect3679" width="27.334" height="11.947" x="14.285" y="34.016" fill="#000" fill-opacity="1" fill-rule="nonzero" stroke="#fff" stroke-dasharray="none" stroke-dashoffset="0" stroke-linejoin="round" stroke-miterlimit="4" stroke-opacity="1" stroke-width="1.917" ry="0"/><path id="path3681" fill="#fff" fill-opacity="1" fill-rule="nonzero" stroke="#fff" stroke-dasharray="none" stroke-dashoffset="0" stroke-linejoin="round" stroke-miterlimit="4" stroke-opacity="1" stroke-width="1.48" d="m 20.86446,21.646627 a 1.2818655,1.3676591 0 0 1 -2.563731,0 1.2818655,1.3676591 0 1 1 2.563731,0 z"/><path id="path3683" fill="#fff" fill-opacity="1" fill-rule="nonzero" stroke="#fff" stroke-dasharray="none" stroke-dashoffset="0" stroke-linejoin="round" stroke-miterlimit="4" stroke-opacity="1" stroke-width="1.48" d="m 37.754923,21.646627 a 1.2818655,1.3676591 0 0 1 -2.563731,0 1.2818655,1.3676591 0 1 1 2.563731,0 z"/><path id="path3689" fill="#000" fill-opacity="1" stroke="#fff" stroke-dasharray="none" stroke-linecap="butt" stroke-linejoin="miter" stroke-miterlimit="4" stroke-opacity="1" stroke-width="1.917" d="m 14.228922,39.98935 26.843769,0"/><path id="path3691" fill="#000" fill-opacity="1" stroke="#fff" stroke-dasharray="none" stroke-linecap="butt" stroke-linejoin="miter" stroke-miterlimit="4" stroke-opacity="1" stroke-width="1.917" d="m 29.912923,33.955559 0,11.263071"/><path id="path3693" fill="#000" fill-opacity="1" stroke="#fff" stroke-dasharray="none" stroke-linecap="butt" stroke-linejoin="miter" stroke-miterlimit="4" stroke-opacity="1" stroke-width="1.917" d="m 24.483846,33.955559 0,11.263071"/><path id="path3695" fill="#000" fill-opacity="1" stroke="#fff" stroke-dasharray="none" stroke-linecap="butt" stroke-linejoin="miter" stroke-miterlimit="4" stroke-opacity="1" stroke-width="1.917" d="m 35.342002,33.955559 0,11.263071"/><path id="path3697" fill="#000" fill-opacity="1" stroke="#fff" stroke-dasharray="none" stroke-linecap="butt" stroke-linejoin="miter" stroke-miterlimit="4" stroke-opacity="1" stroke-width="1.917" d="m 19.205576,33.955559 0,11.263071"/></svg>