<svg xmlns="http://www.w3.org/2000/svg" xmlns:xlink="http://www.w3.org/1999/xlink" width="55" height="55" fill="#eee" stroke="#000" stroke-linecap="round" stroke-linejoin="round" stroke-width="3.5" viewBox="0 0 55 55"><path id="path6" fill="#eee" fill-opacity="1" stroke="#eee" stroke-dasharray="none" stroke-linecap="round" stroke-linejoin="miter" stroke-miterlimit="4" stroke-opacity="1" stroke-width="0" d="m 18.392857,27.49995 a 2.4107143,2.4107143 0 1 1 -6.1e-5,-0.0172"/><path id="path8" fill="#eee" fill-opacity="1" stroke="#eee" stroke-dasharray="none" stroke-linecap="round" stroke-linejoin="miter" stroke-miterlimit="4" stroke-opacity="1" stroke-width="0" d="m 24.151786,27.49995 a 2.4107143,2.4107143 0 1 1 -6.2e-5,-0.0172"/><path id="path12" fill="#eee" fill-opacity="1" stroke="#eee" stroke-dasharray="none" stroke-linecap="round" stroke-linejoin="miter" stroke-miterlimit="4" stroke-opacity="1" stroke-width="0" d="m 35.669643,27.49995 a 2.4107143,2.4107143 0 1 1 -6.2e-5,-0.0172"/><path id="path14" fill="#eee" fill-opacity="1" stroke="#eee" stroke-dasharray="none" stroke-linecap="round" stroke-linejoin="miter" stroke-miterlimit="4" stroke-opacity="1" stroke-width="0" d="m 12.633929,27.49995 a 2.4107143,2.4107143 0 1 1 -6.2e-5,-0.0172"/><path id="path16" fill="#eee" fill-opacity="1" stroke="#eee" stroke-dasharray="none" stroke-linecap="round" stroke-linejoin="miter" stroke-miterlimit="4" stroke-opacity="1" stroke-width="0" d="m 41.428572,27.49995 a 2.4107143,2.4107143 0 1 1 -6.2e-5,-0.0172"/><path id="path18" fill="#eee" fill-opacity="1" stroke="#eee" stroke-dasharray="none" stroke-linecap="round" stroke-linejoin="miter" stroke-miterlimit="4" stroke-opacity="1" stroke-width="0" d="m 47.1875,27.49995 a 2.4107143,2.4107143 0 1 1 -6.2e-5,-0.0172"/><path id="path22" fill="#eee" fill-opacity="1" stroke="#eee" stroke-dasharray="none" stroke-linecap="round" stroke-linejoin="miter" stroke-miterlimit="4" stroke-opacity="1" stroke-width="0" d="m 18.392857,39.821378 a 2.4107143,2.4107143 0 1 1 -6.1e-5,-0.0172"/><path id="path24" fill="#eee" fill-opacity="1" stroke="#eee" stroke-dasharray="none" stroke-linecap="round" stroke-linejoin="miter" stroke-miterlimit="4" stroke-opacity="1" stroke-width="0" d="m 24.151786,39.821378 a 2.4107143,2.4107143 0 1 1 -6.2e-5,-0.0172"/><path id="path28" fill="#eee" fill-opacity="1" stroke="#eee" stroke-dasharray="none" stroke-linecap="round" stroke-linejoin="miter" stroke-miterlimit="4" stroke-opacity="1" stroke-width="0" d="m 35.669643,39.821378 a 2.4107143,2.4107143 0 1 1 -6.2e-5,-0.0172"/><path id="path30" fill="#eee" fill-opacity="1" stroke="#eee" stroke-dasharray="none" stroke-linecap="round" stroke-linejoin="miter" stroke-miterlimit="4" stroke-opacity="1" stroke-width="0" d="m 12.633929,39.821378 a 2.4107143,2.4107143 0 1 1 -6.2e-5,-0.0172"/><path id="path32" fill="#eee" fill-opacity="1" stroke="#eee" stroke-dasharray="none" stroke-linecap="round" stroke-linejoin="miter" stroke-miterlimit="4" stroke-opacity="1" stroke-width="0" d="m 41.428572,39.821378 a 2.4107143,2.4107143 0 1 1 -6.2e-5,-0.0172"/><path id="path34" fill="#eee" fill-opacity="1" stroke="#eee" stroke-dasharray="none" stroke-linecap="round" stroke-linejoin="miter" stroke-miterlimit="4" stroke-opacity="1" stroke-width="0" d="m 47.1875,39.821378 a 2.4107143,2.4107143 0 1 1 -6.2e-5,-0.0172"/><path id="path38" fill="#eee" fill-opacity="1" stroke="#eee" stroke-dasharray="none" stroke-linecap="round" stroke-linejoin="miter" stroke-miterlimit="4" stroke-opacity="1" stroke-width="0" d="m 18.392857,9.0178068 a 2.4107143,2.4107143 0 1 1 -6.1e-5,-0.017197"/><path id="path40" fill="#eee" fill-opacity="1" stroke="#eee" stroke-dasharray="none" stroke-linecap="round" stroke-linejoin="miter" stroke-miterlimit="4" stroke-opacity="1" stroke-width="0" d="m 24.151786,9.0178068 a 2.4107143,2.4107143 0 1 1 -6.2e-5,-0.017197"/><path id="path44" fill="#eee" fill-opacity="1" stroke="#eee" stroke-dasharray="none" stroke-linecap="round" stroke-linejoin="miter" stroke-miterlimit="4" stroke-opacity="1" stroke-width="0" d="m 35.669643,9.0178068 a 2.4107143,2.4107143 0 1 1 -6.2e-5,-0.017197"/><path id="path46" fill="#eee" fill-opacity="1" stroke="#eee" stroke-dasharray="none" stroke-linecap="round" stroke-linejoin="miter" stroke-miterlimit="4" stroke-opacity="1" stroke-width="0" d="m 12.633929,9.0178068 a 2.4107143,2.4107143 0 1 1 -6.2e-5,-0.017197"/><path id="path48" fill="#eee" fill-opacity="1" stroke="#eee" stroke-dasharray="none" stroke-linecap="round" stroke-linejoin="miter" stroke-miterlimit="4" stroke-opacity="1" stroke-width="0" d="m 41.428572,9.0178068 a 2.4107143,2.4107143 0 1 1 -6.2e-5,-0.017197"/><path id="path50" fill="#eee" fill-opacity="1" stroke="#eee" stroke-dasharray="none" stroke-linecap="round" stroke-linejoin="miter" stroke-miterlimit="4" stroke-opacity="1" stroke-width="0" d="m 47.1875,9.0178068 a 2.4107143,2.4107143 0 1 1 -6.2e-5,-0.017197"/><path id="path54" fill="#eee" fill-opacity="1" stroke="#eee" stroke-dasharray="none" stroke-linecap="round" stroke-linejoin="miter" stroke-miterlimit="4" stroke-opacity="1" stroke-width="0" d="m 18.392857,15.178521 a 2.4107143,2.4107143 0 1 1 -6.1e-5,-0.0172"/><path id="path56" fill="#eee" fill-opacity="1" stroke="#eee" stroke-dasharray="none" stroke-linecap="round" stroke-linejoin="miter" stroke-miterlimit="4" stroke-opacity="1" stroke-width="0" d="m 24.151786,15.178521 a 2.4107143,2.4107143 0 1 1 -6.2e-5,-0.0172"/><path id="path60" fill="#eee" fill-opacity="1" stroke="#eee" stroke-dasharray="none" stroke-linecap="round" stroke-linejoin="miter" stroke-miterlimit="4" stroke-opacity="1" stroke-width="0" d="m 35.669643,15.178521 a 2.4107143,2.4107143 0 1 1 -6.2e-5,-0.0172"/><path id="path62" fill="#eee" fill-opacity="1" stroke="#eee" stroke-dasharray="none" stroke-linecap="round" stroke-linejoin="miter" stroke-miterlimit="4" stroke-opacity="1" stroke-width="0" d="m 12.633929,15.178521 a 2.4107143,2.4107143 0 1 1 -6.2e-5,-0.0172"/><path id="path64" fill="#eee" fill-opacity="1" stroke="#eee" stroke-dasharray="none" stroke-linecap="round" stroke-linejoin="miter" stroke-miterlimit="4" stroke-opacity="1" stroke-width="0" d="m 41.428572,15.178521 a 2.4107143,2.4107143 0 1 1 -6.2e-5,-0.0172"/><path id="path66" fill="#eee" fill-opacity="1" stroke="#eee" stroke-dasharray="none" stroke-linecap="round" stroke-linejoin="miter" stroke-miterlimit="4" stroke-opacity="1" stroke-width="0" d="m 47.1875,15.178521 a 2.4107143,2.4107143 0 1 1 -6.2e-5,-0.0172"/><path id="path70" fill="#eee" fill-opacity="1" stroke="#eee" stroke-dasharray="none" stroke-linecap="round" stroke-linejoin="miter" stroke-miterlimit="4" stroke-opacity="1" stroke-width="0" d="m 18.392857,21.339235 a 2.4107143,2.4107143 0 1 1 -6.1e-5,-0.0172"/><path id="path72" fill="#eee" fill-opacity="1" stroke="#eee" stroke-dasharray="none" stroke-linecap="round" stroke-linejoin="miter" stroke-miterlimit="4" stroke-opacity="1" stroke-width="0" d="m 24.151786,21.339235 a 2.4107143,2.4107143 0 1 1 -6.2e-5,-0.0172"/><path id="path76" fill="#eee" fill-opacity="1" stroke="#eee" stroke-dasharray="none" stroke-linecap="round" stroke-linejoin="miter" stroke-miterlimit="4" stroke-opacity="1" stroke-width="0" d="m 35.669643,21.339235 a 2.4107143,2.4107143 0 1 1 -6.2e-5,-0.0172"/><path id="path78" fill="#eee" fill-opacity="1" stroke="#eee" stroke-dasharray="none" stroke-linecap="round" stroke-linejoin="miter" stroke-miterlimit="4" stroke-opacity="1" stroke-width="0" d="m 12.633929,21.339235 a 2.4107143,2.4107143 0 1 1 -6.2e-5,-0.0172"/><path id="path80" fill="#eee" fill-opacity="1" stroke="#eee" stroke-dasharray="none" stroke-linecap="round" stroke-linejoin="miter" stroke-miterlimit="4" stroke-opacity="1" stroke-width="0" d="m 41.428572,21.339235 a 2.4107143,2.4107143 0 1 1 -6.2e-5,-0.0172"/><path id="path82" fill="#eee" fill-opacity="1" stroke="#eee" stroke-dasharray="none" stroke-linecap="round" stroke-linejoin="miter" stroke-miterlimit="4" stroke-opacity="1" stroke-width="0" d="m 47.1875,21.339235 a 2.4107143,2.4107143 0 1 1 -6.2e-5,-0.0172"/><path id="path86" fill="#eee" fill-opacity="1" stroke="#eee" stroke-dasharray="none" stroke-linecap="round" stroke-linejoin="miter" stroke-miterlimit="4" stroke-opacity="1" stroke-width="0" d="m 18.392857,33.660664 a 2.4107143,2.4107143 0 1 1 -6.1e-5,-0.0172"/><path id="path88" fill="#eee" fill-opacity="1" stroke="#eee" stroke-dasharray="none" stroke-linecap="round" stroke-linejoin="miter" stroke-miterlimit="4" stroke-opacity="1" stroke-width="0" d="m 24.151786,33.660664 a 2.4107143,2.4107143 0 1 1 -6.2e-5,-0.0172"/><path id="path92" fill="#eee" fill-opacity="1" stroke="#eee" stroke-dasharray="none" stroke-linecap="round" stroke-linejoin="miter" stroke-miterlimit="4" stroke-opacity="1" stroke-width="0" d="m 35.669643,33.660664 a 2.4107143,2.4107143 0 1 1 -6.2e-5,-0.0172"/><path id="path94" fill="#eee" fill-opacity="1" stroke="#eee" stroke-dasharray="none" stroke-linecap="round" stroke-linejoin="miter" stroke-miterlimit="4" stroke-opacity="1" stroke-width="0" d="m 12.633929,33.660664 a 2.4107143,2.4107143 0 1 1 -6.2e-5,-0.0172"/><path id="path96" fill="#eee" fill-opacity="1" stroke="#eee" stroke-dasharray="none" stroke-linecap="round" stroke-linejoin="miter" stroke-miterlimit="4" stroke-opacity="1" stroke-width="0" d="m 41.428572,33.660664 a 2.4107143,2.4107143 0 1 1 -6.2e-5,-0.0172"/><path id="path98" fill="#eee" fill-opacity="1" stroke="#eee" stroke-dasharray="none" stroke-linecap="round" stroke-linejoin="miter" stroke-miterlimit="4" stroke-opacity="1" stroke-width="0" d="m 47.1875,33.660664 a 2.4107143,2.4107143 0 1 1 -6.2e-5,-0.0172"/><rect id="rect3174" width="3.983" height="44.183" x="25.509" y="1.409" fill="#000" fill-opacity="1" stroke="#000" stroke-dasharray="none" stroke-miterlimit="4" stroke-opacity="1" stroke-width=".817" rx="1.863" ry="0"/></svg>