<svg xmlns="http://www.w3.org/2000/svg" xmlns:svg="http://www.w3.org/2000/svg" id="svg2" width="55" height="55" version="1.1" viewBox="0 0 55 55" xml:space="preserve"><metadata id="metadata21"/><circle id="circle824" cx="28.323" cy="30.408" r="18.346" fill="#fff" fill-opacity="1" stroke="#282828" stroke-opacity="1" stroke-width="3.5"/><path id="ellipse840" fill="#fff" fill-opacity="1" stroke="#282828" stroke-opacity="1" stroke-width="3.5" d="m 36.460245,13.229518 a 3.5559129,11.037268 71.736975 0 0 -9.425698,6.689423 3.5559129,11.037268 71.736975 0 0 11.503561,-0.195429 3.5559129,11.037268 71.736975 0 0 9.430399,-6.690968 3.5559129,11.037268 71.736975 0 0 -11.508262,0.196974 z"/><path id="path848" fill="#fff" fill-opacity="1" stroke="#282828" stroke-opacity="1" stroke-width="3.5" d="M 23.367411,11.616674 A 11.037268,3.5559129 18.263025 0 1 32.793109,18.306097 11.037268,3.5559129 18.263025 0 1 21.289548,18.110668 11.037268,3.5559129 18.263025 0 1 11.859149,11.4197 11.037268,3.5559129 18.263025 0 1 23.367411,11.616674 Z"/></svg>