<svg xmlns="http://www.w3.org/2000/svg" xmlns:svg="http://www.w3.org/2000/svg" id="svg2" width="55" height="55" version="1.0"><metadata id="metadata3031"/><rect id="rect3821" width="30.772" height="29.058" x="12.328" y="16.774" fill="none" stroke="#fff" stroke-dasharray="none" stroke-linejoin="round" stroke-miterlimit="4" stroke-opacity="1" stroke-width="3.899"/><rect id="rect3823" width="38.669" height="1.669" x="8.165" y="15.04" fill="none" stroke="#fff" stroke-dasharray="none" stroke-linejoin="round" stroke-miterlimit="4" stroke-opacity="1" stroke-width="1.759"/><rect id="rect3908" width="24.429" height=".143" x="15.714" y="9.018" fill="none" stroke="#fff" stroke-dasharray="none" stroke-linejoin="round" stroke-miterlimit="4" stroke-opacity="1" stroke-width="3.599"/><rect id="rect3910" width=".143" height="5.143" x="15.714" y="9.303" fill="none" stroke="#fff" stroke-dasharray="none" stroke-linejoin="round" stroke-miterlimit="4" stroke-opacity="1" stroke-width="3.599"/><rect id="rect3910-5" width=".143" height="5.143" x="39.929" y="9.161" fill="none" stroke="#fff" stroke-dasharray="none" stroke-linejoin="round" stroke-miterlimit="4" stroke-opacity="1" stroke-width="3.599"/><g id="edit-clear" display="block" transform="translate(0,6)"><path id="path3109" fill="#fff" d="m 13,12.033 0,26.934 29,0 0,-26.934 z M 37.575,35.1 c 0.684,0.683 0.684,1.793 0,2.476 -0.341,0.342 -0.789,0.513 -1.237,0.513 -0.448,0 -0.896,-0.171 -1.238,-0.513 l -7.601,-7.602 -7.602,7.602 c -0.342,0.342 -0.79,0.513 -1.237,0.513 -0.447,0 -0.895,-0.171 -1.237,-0.513 -0.684,-0.683 -0.684,-1.793 0,-2.476 l 7.601,-7.601 -7.601,-7.602 c -0.684,-0.684 -0.684,-1.791 0,-2.474 0.683,-0.684 1.791,-0.684 2.474,0 l 7.602,7.601 7.601,-7.601 c 0.683,-0.684 1.793,-0.684 2.476,0 0.684,0.683 0.684,1.791 0,2.474 l -7.602,7.602 z"/></g></svg>