<svg xmlns="http://www.w3.org/2000/svg" xmlns:svg="http://www.w3.org/2000/svg" id="svg4239" width="55" height="55" version="1.1"><metadata id="metadata4262"/><g id="plugins" transform="translate(-233.21351,-70.250047)"><g id="g45" fill="none" stroke="#000" stroke-opacity="1" transform="matrix(0.55205508,0,0,0.55205508,277.61846,85.235971)"><g id="g47" fill="none" stroke="#000" stroke-opacity="1" transform="translate(-80.093659,12.220029)"><g id="g49" fill="none" stroke="#000" stroke-opacity="1"><path id="path51" fill="none" stroke="#000" stroke-linecap="round" stroke-linejoin="round" stroke-opacity="1" stroke-width="3.5" d="m 6.736,49.002 24.52,0 c 2.225,0 3.439,-1.447 3.439,-3.441 l 0,-27.28 c 0,-1.73 -1.732,-3.441 -3.439,-3.441 l -4.389,0"/></g></g><g id="g53" fill="none" stroke="#000" stroke-opacity="1" transform="translate(-80.093659,12.220029)"><g id="g55" fill="none" stroke="#000" stroke-opacity="1"><path id="path57" fill="none" stroke="#000" stroke-linecap="round" stroke-linejoin="round" stroke-opacity="1" stroke-width="3.5" d="m 26.867,38.592 c 0,1.836 -1.345,3.201 -3.441,4.047 l -16.69,6.363 0,-34.162 16.69,-8.599 c 2.228,-0.394 3.441,0.84 3.441,2.834 l 0,29.517 z"/></g></g><path id="path59" fill="none" stroke="#000" stroke-linecap="round" stroke-linejoin="round" stroke-opacity="1" stroke-width="2.25" d="m -70.669659,54.827029 c 0,0 -1.351,-0.543 -2.702,-0.543 -1.351,0 -2.703,0.543 -2.703,0.543"/><path id="path61" fill="none" stroke="#000" stroke-linecap="round" stroke-linejoin="round" stroke-opacity="1" stroke-width="2.25" d="m -70.669659,44.226029 c 0,0 -1.239,-0.543 -2.815,-0.543 -1.577,0 -2.59,0.543 -2.59,0.543"/><path id="path63" fill="none" stroke="#000" stroke-linecap="round" stroke-linejoin="round" stroke-opacity="1" stroke-width="2.25" d="m -70.669659,33.898029 c 0,0 -1.125,-0.544 -2.927,-0.544 -1.802,0 -2.478,0.544 -2.478,0.544"/><line id="line65" x1="-66.885" x2="-66.885" y1="58.753" y2="23.725" fill="none" stroke="#000" stroke-linecap="round" stroke-linejoin="round" stroke-opacity="1" stroke-width="2.25"/></g><g id="g67" fill="none" stroke="#000" stroke-opacity="1" transform="matrix(0,-1,-1,0,276.9376,156.38657)"><g id="g69" fill="none" stroke="#000" stroke-opacity="1" transform="translate(34.0803,-1006.42)"><polyline id="polyline71" fill="none" stroke="#000" stroke-linecap="round" stroke-linejoin="round" stroke-opacity="1" stroke-width="3.5" points="51.562 15.306 41.17 16.188 42.053 5.794" transform="matrix(-0.469241,0.469241,-0.469241,-0.469241,66.2906,1019.03)"/><path id="path73" fill="none" stroke="#000" stroke-dasharray="none" stroke-linecap="round" stroke-linejoin="round" stroke-miterlimit="4" stroke-opacity="1" stroke-width="2.5" d="m 39.363241,1033.1291 -0.05636,9.9115 -8.750608,0.067"/></g></g><path id="path75" fill="none" stroke="#000" stroke-dasharray="none" stroke-linecap="square" stroke-miterlimit="4" stroke-opacity="1" stroke-width="2" d="m 256.54634,85.388888 0,-4.444445 a 4.444445,4.444445 0 0 1 4.44445,-4.444445 l 4.44444,0 0,2.222223 11.11111,0 0,-2.222223 4.44445,0 a 4.444445,4.444445 0 0 1 4.44444,4.444445 l 0,4.444445 0,4.444445 a 4.444445,4.444445 0 0 1 -4.44444,4.444445 l -4.44445,0 -1.11111,0 0,2.222223 -8.88889,0 0,-2.222223 -1.11111,0 -4.44444,0 a 4.444445,4.444445 0 0 1 -4.44445,-4.444445 l 0,-4.444445 z"/></g></svg>