<svg xmlns="http://www.w3.org/2000/svg" xmlns:svg="http://www.w3.org/2000/svg" id="svg8" width="100mm" height="100mm" version="1.1" viewBox="0 0 100 100"><metadata id="metadata5"/><g id="layer1" transform="translate(-43.845234,-67.946426)"><rect id="rect3713" width="100" height="100" x="43.284" y="67.946" fill="#fea" stroke-width=".265"/><rect id="rect3715-3" width="65.846" height="3.969" x="59.427" y="83.722" fill="#4d4d4d" stroke-width=".242"/><g id="g4703" transform="translate(0,-4.0372213e-6)"><rect id="rect3715" width="23.842" height="3.969" x="81.854" y="102.604" fill="#4d4d4d" stroke-width=".145"/><rect id="rect3715-6" width="28.051" height="3.969" x="107.141" y="102.604" fill="#ececec" stroke-width=".158"/><rect id="rect3746" width="27.489" height="3.969" x="52.777" y="102.604" fill="#ececec" stroke-width=".156"/></g><g id="g4698" transform="translate(0,0.1842507)"><rect id="rect3754" width="13.083" height="3.969" x="52.777" y="108.724" fill="#ececec" stroke-width=".108"/><rect id="rect3756" width="53.308" height="3.969" x="81.884" y="108.724" fill="#ececec" stroke-width=".218"/><rect id="rect4667" width="12.616" height="3.969" x="67.63" y="108.724" fill="#4d4d4d" stroke-width=".106"/></g><g id="g4708" transform="translate(0,0.13817794)"><rect id="rect4669" width="30.723" height="3.969" x="52.777" y="115.074" fill="#ececec" stroke-width=".165"/><rect id="rect4671" width="33.85" height="3.969" x="101.341" y="115.074" fill="#ececec" stroke-width=".173"/><rect id="rect4673" width="15.979" height="3.969" x="84.559" y="115.074" fill="#4d4d4d" stroke-width=".119"/></g><g id="g4712" transform="translate(0,0.09208498)"><rect id="rect4677" width="61.914" height="3.969" x="73.278" y="121.424" fill="#ececec" stroke-width=".234"/><rect id="rect4679" width="18.443" height="3.969" x="52.777" y="121.424" fill="#4d4d4d" stroke-width=".128"/></g><g id="g4717" transform="translate(0,0.04600817)"><rect id="rect4681" width="48.964" height="3.969" x="52.777" y="127.774" fill="#ececec" stroke-width=".209"/><rect id="rect4683" width="11.774" height="3.969" x="123.418" y="127.774" fill="#ececec" stroke-width=".102"/><rect id="rect4685" width="20.568" height="3.969" x="102.271" y="127.774" fill="#4d4d4d" stroke-width=".135"/></g><g id="g4723"><rect id="rect4687" width="6.869" height="3.969" x="52.777" y="134.123" fill="#ececec" stroke-width=".078"/><rect id="rect4689" width="39.744" height="3.969" x="74.833" y="134.123" fill="#ececec" stroke-width=".188"/><rect id="rect4691" width="13.178" height="3.969" x="60.901" y="134.123" fill="#4d4d4d" stroke-width=".108"/><rect id="rect4693" width="18.042" height="3.969" x="117.15" y="134.123" fill="#4d4d4d" stroke-width=".127"/></g></g></svg>