<svg xmlns="http://www.w3.org/2000/svg" xmlns:svg="http://www.w3.org/2000/svg" id="svg8" width="100mm" height="100mm" version="1.1" viewBox="0 0 100 100"><defs id="defs2"><symbol id="Merge"><title id="title7205">Merge</title><desc id="desc7207">Combine two or more sets of items into one set. (ISO)</desc><path id="path7209" stroke-width=".529" d="M 9.2604167,9.2604167 H 30.427083 L 19.84375,27.78125 Z"/></symbol><symbol id="Extract"><title id="title7249">Extract</title><desc id="desc7251">Removal of one or more specific sets of times from a set. (ISO)</desc><path id="path7253" stroke-width=".529" d="M 9.2604167,30.427083 19.84375,11.90625 30.427083,30.427083 Z"/></symbol></defs><metadata id="metadata5"/><g id="layer1" transform="translate(-43.845234,-67.946426)"><rect id="rect3713" width="100" height="100" x="43.019" y="67.946" fill="#fea" stroke-width=".265"/><g id="g9967" transform="translate(-4.1010416,0.26458336)"><rect id="rect9948" width="27.992" height="21.08" x="53.928" y="80.451" fill="#fea" stroke="#b3b3b3" stroke-dasharray="none" stroke-miterlimit="4" stroke-width=".85" ry=".664"/><rect id="rect4767" width="19.266" height="2.404" x="56.252" y="83.714" fill="#333" stroke-width=".102"/><rect id="rect9950" width="22.441" height="2.404" x="56.252" y="89.006" fill="#333" stroke-width=".11"/><rect id="rect3715-3" width="22.441" height="3.595" x="56.407" y="-97.715" fill="#fff" stroke="#333" stroke-width=".134" transform="scale(1,-1)"/><rect id="rect9960" width=".425" height="2.414" x="57.52" y="94.777" fill="#000" stroke="#333" stroke-dasharray="none" stroke-dashoffset="0" stroke-miterlimit="4" stroke-width="0"/></g><g id="g10010"><rect id="rect9969" width="27.992" height="21.08" x="80.161" y="80.715" fill="#fea" stroke="#b3b3b3" stroke-dasharray="none" stroke-miterlimit="4" stroke-width=".85" ry=".664"/><rect id="rect9971" width="19.266" height="2.404" x="82.485" y="83.979" fill="#333" stroke-width=".102"/><rect id="rect9973" width="14.901" height="2.404" x="82.485" y="89.27" fill="#333" stroke-width=".09"/><rect id="rect9975" width="22.441" height="3.595" x="82.64" y="-97.979" fill="#fff" stroke="#333" stroke-width=".134" transform="scale(1,-1)"/><rect id="rect9977" width=".425" height="2.414" x="83.753" y="95.041" fill="#000" stroke="#333" stroke-dasharray="none" stroke-dashoffset="0" stroke-miterlimit="4" stroke-width="0"/></g><g id="g10017"><rect id="rect9981" width="27.992" height="21.08" x="110.495" y="80.715" fill="#fea" stroke="#b3b3b3" stroke-dasharray="none" stroke-miterlimit="4" stroke-width=".85" ry=".664"/><rect id="rect9983" width="11.461" height="2.404" x="112.819" y="83.979" fill="#333" stroke-width=".079"/><rect id="rect9985" width="6.17" height="2.404" x="112.819" y="89.27" fill="#333" stroke-width=".058"/><rect id="rect9987" width="22.441" height="3.595" x="112.974" y="-97.979" fill="#fff" stroke="#333" stroke-width=".134" transform="scale(1,-1)"/><rect id="rect9989" width=".425" height="2.414" x="114.087" y="95.041" fill="#000" stroke="#333" stroke-dasharray="none" stroke-dashoffset="0" stroke-miterlimit="4" stroke-width="0"/></g><g id="g10029" transform="translate(-30.333879,25.267708)"><rect id="rect10019" width="27.992" height="21.08" x="80.161" y="80.715" fill="#fea" stroke="#b3b3b3" stroke-dasharray="none" stroke-miterlimit="4" stroke-width=".85" ry=".664"/><rect id="rect10021" width="19.266" height="2.404" x="82.485" y="83.979" fill="#333" stroke-width=".102"/><rect id="rect10023" width="14.901" height="2.404" x="82.485" y="89.27" fill="#333" stroke-width=".09"/><rect id="rect10025" width="22.441" height="3.595" x="82.64" y="-97.979" fill="#fff" stroke="#333" stroke-width=".134" transform="scale(1,-1)"/><rect id="rect10027" width=".425" height="2.414" x="83.753" y="95.041" fill="#000" stroke="#333" stroke-dasharray="none" stroke-dashoffset="0" stroke-miterlimit="4" stroke-width="0"/></g><g id="g10041" transform="translate(26.232838,25.532288)"><rect id="rect10031" width="27.992" height="21.08" x="53.928" y="80.451" fill="#fea" stroke="#b3b3b3" stroke-dasharray="none" stroke-miterlimit="4" stroke-width=".85" ry=".664"/><rect id="rect10033" width="19.266" height="2.404" x="56.252" y="83.714" fill="#333" stroke-width=".102"/><rect id="rect10035" width="22.441" height="2.404" x="56.252" y="89.006" fill="#333" stroke-width=".11"/><rect id="rect10037" width="22.441" height="3.595" x="56.407" y="-97.715" fill="#fff" stroke="#333" stroke-width=".134" transform="scale(1,-1)"/><rect id="rect10039" width=".425" height="2.414" x="57.52" y="94.777" fill="#000" stroke="#333" stroke-dasharray="none" stroke-dashoffset="0" stroke-miterlimit="4" stroke-width="0"/></g></g></svg>