<svg xmlns="http://www.w3.org/2000/svg" xmlns:svg="http://www.w3.org/2000/svg" id="svg8" width="100mm" height="100mm" version="1.1" viewBox="0 0 100 100"><defs id="defs2"><symbol id="Merge"><title id="title7205">Merge</title><desc id="desc7207">Combine two or more sets of items into one set. (ISO)</desc><path id="path7209" stroke-width=".529" d="M 9.2604167,9.2604167 H 30.427083 L 19.84375,27.78125 Z"/></symbol><symbol id="Extract"><title id="title7249">Extract</title><desc id="desc7251">Removal of one or more specific sets of times from a set. (ISO)</desc><path id="path7253" stroke-width=".529" d="M 9.2604167,30.427083 19.84375,11.90625 30.427083,30.427083 Z"/></symbol></defs><metadata id="metadata5"/><g id="layer1" transform="translate(-43.845234,-67.946426)"><rect id="rect3713" width="100" height="100" x="43.019" y="67.946" fill="#fea" stroke-width=".265"/><rect id="rect893" width="40" height="87.368" x="50.56" y="74.087" fill="#fff" stroke-width=".156"/><flowRoot id="flowRoot852" fill="#000" fill-opacity="1" stroke="none" font-family="Webdings" font-size="40" font-stretch="normal" font-style="normal" font-variant="normal" font-weight="normal" letter-spacing="0" word-spacing="0" xml:space="preserve" style="line-height:1.25;-inkscape-font-specification:Webdings"><flowRegion style="-inkscape-font-specification:Webdings" id="flowRegion854" font-family="Webdings" font-stretch="normal" font-style="normal" font-variant="normal" font-weight="normal"><rect font-family="Webdings" style="-inkscape-font-specification:Webdings" id="rect856" width="60.104" height="56.569" x="197.283" y="213.197" font-stretch="normal" font-style="normal" font-variant="normal" font-weight="normal"/></flowRegion><flowPara id="flowPara858"/></flowRoot><g id="g869" transform="translate(13.535964,17.126094)"><rect id="rect10019" width="27.992" height="21.08" x="49.827" y="107.282" fill="#fea" stroke="#b3b3b3" stroke-dasharray="none" stroke-miterlimit="4" stroke-width=".85" ry=".664"/><text font-size="10.583" style="line-height:1.25;-inkscape-font-specification:Webdings" id="text874" x="60.87" y="120.549" fill="#000" fill-opacity="1" stroke="none" stroke-width=".265" font-family="Webdings" font-stretch="normal" font-style="normal" font-variant="normal" font-weight="normal" letter-spacing="0" word-spacing="0" xml:space="preserve"><tspan id="tspan872" x="60.87" y="120.549" stroke-width=".265" font-family="Webdings" font-stretch="normal" font-style="normal" font-variant="normal" font-weight="normal" style="-inkscape-font-specification:Webdings">X</tspan></text></g><rect id="rect895" width="40" height="87.368" x="95.999" y="74.087" fill="#fff" stroke-width=".156"/><g id="g879" transform="translate(-34.035088,10.526316)"><rect id="rect961" width="27.992" height="21.08" x="108.573" y="80.715" fill="#fea" stroke="#b3b3b3" stroke-dasharray="none" stroke-miterlimit="4" stroke-width=".85" ry=".664"/><rect id="rect963" width="15.338" height="2.404" x="111.367" y="83.58" fill="#333" stroke-width=".091"/><rect id="rect965" width="9.345" height="2.404" x="111.367" y="88.101" fill="#333" stroke-width=".071"/></g><rect id="rect973" width="12.526" height="2.404" x="64.28" y="78.177" fill="#333" stroke-width=".082"/><rect id="rect4600" width="22.877" height="2.404" x="104.496" y="78.177" fill="#333" stroke-width=".111"/><g id="g885" transform="translate(-25.964913,9.6491224)"><rect id="rect955" width="27.992" height="21.08" x="108.573" y="107.282" fill="#fea" stroke="#b3b3b3" stroke-dasharray="none" stroke-miterlimit="4" stroke-width=".85" ry=".664"/><g id="g938" stroke="#000" transform="matrix(0.10583333,0,0,0.10583334,116.73178,111.72202)"><path id="path4" fill="none" stroke="#000" stroke-width="5" d="m 50.429502,42.668553 c -9.312,0.01 -16.845,7.544 -16.858,16.859 0.014,9.308 7.546,16.836 16.858,16.854 9.306,-0.019 16.839,-7.547 16.859,-16.854 -0.02,-9.315 -7.553,-16.849 -16.859,-16.859 z m 45.042,-13.975 h -17.204 l -1.332,-15.327 c 0,-1.447 -1.178,-2.629 -2.635,-2.629 h -47.742 c -1.457,0 -2.631,1.182 -2.631,2.629 l -1.333,15.326 h -2.964 v -3.429 c 0,-1.2 -0.974,-2.17 -2.174,-2.17 H 7.7265021 c -1.2,0 -2.174,0.971 -2.174,2.17 v 3.429 h -0.165 c -2.735,0.001 -4.95799997,2.215 -4.95799997,4.951 v 53.227 c 0,2.741 2.22199997,4.958 4.95799997,4.958 H 95.471502 c 2.738,0 4.957998,-2.217 4.957998,-4.958 v -53.227 c 0,-2.736 -2.219998,-4.95 -4.957998,-4.95 z m -82.857,20.836 c -3.3999999,0 -6.1569999,-2.758 -6.1569999,-6.162 0,-3.401 2.756,-6.158 6.1569999,-6.158 3.405,0 6.157,2.757 6.157,6.158 0,3.404 -2.752,6.162 -6.157,6.162 z m 24.965,-31.999 h 25.697 c 1.584,0 2.864,1.287 2.864,2.862 0,1.583 -1.282,2.866 -2.864,2.866 h -25.697 c -1.575,0 -2.859,-1.284 -2.859,-2.866 0,-1.574 1.284,-2.862 2.859,-2.862 z m 12.85,66.486 c -13.532,0 -24.49,-10.961 -24.497,-24.489 0.006,-13.536 10.965,-24.498 24.497,-24.498 13.528,0 24.489,10.962 24.493,24.497 -0.004,13.529 -10.965,24.49 -24.493,24.49 z"/><ellipse id="path4142" cx="50.298" cy="59.638" fill="none" stroke="#000" rx="16.486" ry="16.808"/></g></g></g></svg>