<svg xmlns="http://www.w3.org/2000/svg" xmlns:svg="http://www.w3.org/2000/svg" xmlns:xlink="http://www.w3.org/1999/xlink" id="svg8" width="100mm" height="100mm" version="1.1" viewBox="0 0 100 100"><defs id="defs2"><symbol id="Merge"><title id="title7205">Merge</title><desc id="desc7207">Combine two or more sets of items into one set. (ISO)</desc><path id="path7209" stroke-width=".529" d="M 9.2604167,9.2604167 H 30.427083 L 19.84375,27.78125 Z"/></symbol><symbol id="Extract"><title id="title7249">Extract</title><desc id="desc7251">Removal of one or more specific sets of times from a set. (ISO)</desc><path id="path7253" stroke-width=".529" d="M 9.2604167,30.427083 19.84375,11.90625 30.427083,30.427083 Z"/></symbol></defs><metadata id="metadata5"/><g id="layer1" transform="translate(-43.845234,-67.946426)"><rect id="rect3713" width="100" height="100" x="43.284" y="67.946" fill="#fea" stroke-width=".265"/><rect id="rect3715-3" width="65.846" height="8.646" x="60.298" y="82.782" fill="#4d4d4d" stroke-width=".357"/><rect id="rect4677" width="65.846" height="8.646" x="60.298" y="110.034" fill="#ececec" stroke-width=".357"/><rect id="rect4763" width="65.846" height="8.646" x="60.298" y="137.286" fill="#ececec" stroke-width=".357"/><rect id="rect4767" width="65.846" height="8.646" x="60.298" y="96.408" fill="#ececec" stroke-width=".357"/><rect id="rect4769" width="65.846" height="8.646" x="60.298" y="123.66" fill="#ececec" stroke-width=".357"/><g id="g9925" transform="translate(-1.2637841,-13.259294)"><path id="path4777" fill="none" stroke="#000" stroke-dasharray="none" stroke-linecap="butt" stroke-linejoin="miter" stroke-miterlimit="4" stroke-opacity="1" stroke-width=".965" d="m 56.754352,100.22033 c -0.685705,0.0623 -1.371697,0.1247 -2.213889,1.4971 -0.842191,1.3724 -1.83958,4.05288 -2.338542,6.85941 -0.498963,2.80653 -0.498963,5.73724 0.02851,8.94047 0.527476,3.20322 1.592813,6.71257 2.621982,8.45881 1.029169,1.74624 2.026927,1.74624 3.024469,1.74624"/><use id="use9904" width="100%" height="100%" x="0" y="0" fill="#000" stroke="#000" transform="matrix(0.23258219,0.15459471,-0.16787728,0.25256534,54.301748,92.695586)" xlink:href="#Extract"/><use id="use9920" width="100%" height="100%" x="0" y="0" fill="#000" stroke="#000" transform="matrix(-0.18698515,0.20743808,-0.22526088,-0.20305066,65.13399,127.80172)" xlink:href="#Extract"/></g><rect id="rect9927" width="65.846" height="8.646" x="60.298" y="81.195" fill="#4d4d4d" stroke-width=".357"/></g></svg>