<svg xmlns="http://www.w3.org/2000/svg" xmlns:svg="http://www.w3.org/2000/svg" id="svg8" width="100mm" height="100mm" version="1.1" viewBox="0 0 100 100"><metadata id="metadata5"/><g id="layer1" transform="translate(-43.845234,-67.946426)"><rect id="rect3713" width="100" height="100" x="43.845" y="67.946" fill="#fea" stroke-width=".265"/><rect id="rect3715" width="78.846" height="3.969" x="56.621" y="92.477" fill="#4d4d4d" stroke-width=".265"/><rect id="rect3726" width="78.846" height="3.969" x="56.621" y="92.477" fill="#4d4d4d" stroke-width=".265"/><rect id="rect3715-3" width="65.846" height="3.969" x="56.621" y="101.87" fill="#4d4d4d" stroke-width=".242"/><text id="text3736" x="124.09" y="105.706" fill="#000" fill-opacity="1" stroke="none" stroke-width=".265" font-family="sans-serif" font-size="10.583" font-style="normal" font-weight="normal" letter-spacing="0" word-spacing="0" xml:space="preserve" style="line-height:1.25"><tspan id="tspan3734" x="124.09" y="105.706" stroke-width=".265" font-family="sans-serif" font-size="6.35" font-stretch="normal" font-style="normal" font-variant="normal" font-weight="bold" style="-inkscape-font-specification:'sans-serif Bold'">?</tspan></text><rect id="rect3715-6" width="58.546" height="3.969" x="64.558" y="127.27" fill="#ececec" stroke-width=".228"/><rect id="rect3746" width="58.546" height="3.969" x="64.558" y="119.068" fill="#ececec" stroke-width=".228"/><rect id="rect3754" width="58.546" height="3.969" x="64.558" y="135.472" fill="#ececec" stroke-width=".228"/><rect id="rect3758" width="4.028" height="3.969" x="-61.78" y="127.27" fill="#ececec" stroke-width=".06" transform="scale(-1,1)"/><rect id="rect3756" width="58.546" height="3.969" x="64.558" y="143.674" fill="#ececec" stroke-width=".228"/><rect id="rect3760" width="4.028" height="3.969" x="-61.78" y="119.068" fill="#ececec" stroke-width=".06" transform="scale(-1,1)"/><rect id="rect3762" width="4.028" height="3.969" x="-61.78" y="135.472" fill="#ececec" stroke-width=".06" transform="scale(-1,1)"/><rect id="rect3764" width="4.028" height="3.969" x="-61.78" y="143.674" fill="#ececec" stroke-width=".06" transform="scale(-1,1)"/><g id="g4587"><path id="path3772" fill="none" stroke="#000" stroke-dasharray="none" stroke-linecap="butt" stroke-linejoin="miter" stroke-miterlimit="4" stroke-opacity="1" stroke-width=".465" d="m 58.499059,136.3689 2.317681,2.36955"/><path id="path4583" fill="none" stroke="#000" stroke-dasharray="none" stroke-linecap="butt" stroke-linejoin="miter" stroke-miterlimit="4" stroke-opacity="1" stroke-width=".465" d="m 60.81674,136.3689 -2.317681,2.36955"/></g><g id="g4593" transform="translate(0,-16.404171)"><path id="path4589" fill="none" stroke="#000" stroke-dasharray="none" stroke-linecap="butt" stroke-linejoin="miter" stroke-miterlimit="4" stroke-opacity="1" stroke-width=".465" d="m 58.499059,136.3689 2.317681,2.36955"/><path id="path4591" fill="none" stroke="#000" stroke-dasharray="none" stroke-linecap="butt" stroke-linejoin="miter" stroke-miterlimit="4" stroke-opacity="1" stroke-width=".465" d="m 60.81674,136.3689 -2.317681,2.36955"/></g><g id="g4599" transform="translate(0,7.9375004)"><path id="path4595" fill="none" stroke="#000" stroke-dasharray="none" stroke-linecap="butt" stroke-linejoin="miter" stroke-miterlimit="4" stroke-opacity="1" stroke-width=".465" d="m 58.499059,136.3689 2.317681,2.36955"/><path id="path4597" fill="none" stroke="#000" stroke-dasharray="none" stroke-linecap="butt" stroke-linejoin="miter" stroke-miterlimit="4" stroke-opacity="1" stroke-width=".465" d="m 60.81674,136.3689 -2.317681,2.36955"/></g></g></svg>