<svg xmlns="http://www.w3.org/2000/svg" xmlns:svg="http://www.w3.org/2000/svg" id="svg2" width="55" height="55" version="1.1" viewBox="0 0 55 55" xml:space="preserve"><metadata id="metadata25"/><g id="g3014" transform="translate(-24.072147,0)"><g id="g3116" fill="none" stroke="#fff" stroke-dasharray="none" stroke-miterlimit="4" stroke-opacity="1" stroke-width="2.151" transform="matrix(1.1623273,0,0,1.1623273,5.8946433,-8.9787622)"><polygon id="polygon3118" fill="none" stroke="#fff" stroke-dasharray="none" stroke-miterlimit="4" stroke-opacity="1" stroke-width="2.151" points="39.811 18.343 39.811 38.42 18.435 38.42 18.435 10.583 32.046 10.583"/><polyline id="polyline3120" fill="none" stroke="#fff" stroke-dasharray="none" stroke-miterlimit="4" stroke-opacity="1" stroke-width="2.151" points="39.811 18.343 32.046 18.343 32.046 10.583"/></g><g id="g3122" fill="none" stroke="#fff" stroke-opacity="1" transform="matrix(1.1623273,0,0,1.1623273,5.8946433,-8.9787622)"><circle id="circle3124" cx="29.123" cy="28.4" r="6.469" fill="none" stroke="#fff" stroke-opacity="1"/><g id="g3126" fill="none" stroke="#fff" stroke-opacity="1"><path id="path3128" fill="none" stroke="#fff" stroke-opacity="1" stroke-width=".975" d="m 29.124,21.932 c 0,0 3.596,2.971 3.596,6.492 0,3.523 -3.596,6.445 -3.596,6.445"/><path id="path3130" fill="none" stroke="#fff" stroke-opacity="1" stroke-width=".975" d="m 29.124,21.932 c 0,0 -3.642,2.728 -3.642,6.492 0,3.765 3.642,6.445 3.642,6.445"/><line id="line3132" x1="29.124" x2="29.124" y1="21.932" y2="34.869" fill="none" stroke="#fff" stroke-opacity="1" stroke-width=".975"/><line id="line3134" x1="22.654" x2="35.591" y1="28.4" y2="28.4" fill="none" stroke="#fff" stroke-opacity="1" stroke-width=".975"/></g></g></g><g id="g3830"><g id="g4382" transform="matrix(0.55205508,0,0,0.55205508,75.618464,18.235971)"><g id="g4308" fill="none" stroke="#fff" stroke-opacity="1" transform="translate(-80.093659,12.220029)"><g id="g4310" fill="none" stroke="#fff" stroke-opacity="1"><path id="path4312" fill="none" stroke="#fff" stroke-linecap="round" stroke-linejoin="round" stroke-opacity="1" stroke-width="3.5" d="m 6.736,49.002 h 24.52 c 2.225,0 3.439,-1.447 3.439,-3.441 v -27.28 c 0,-1.73 -1.732,-3.441 -3.439,-3.441 h -4.389"/></g></g><g id="g4314" fill="none" stroke="#fff" stroke-opacity="1" transform="translate(-80.093659,12.220029)"><g id="g4316" fill="none" stroke="#fff" stroke-opacity="1"><path id="path4318" fill="none" stroke="#fff" stroke-linecap="round" stroke-linejoin="round" stroke-opacity="1" stroke-width="3.5" d="m 26.867,38.592 c 0,1.836 -1.345,3.201 -3.441,4.047 L 6.736,49.002 V 14.84 l 16.69,-8.599 c 2.228,-0.394 3.441,0.84 3.441,2.834 v 29.517 z"/></g></g><path id="path4320" fill="none" stroke="#fff" stroke-linecap="round" stroke-linejoin="round" stroke-opacity="1" stroke-width="2.25" d="m -70.669659,54.827029 c 0,0 -1.351,-0.543 -2.702,-0.543 -1.351,0 -2.703,0.543 -2.703,0.543"/><path id="path4322" fill="none" stroke="#fff" stroke-linecap="round" stroke-linejoin="round" stroke-opacity="1" stroke-width="2.25" d="m -70.669659,44.226029 c 0,0 -1.239,-0.543 -2.815,-0.543 -1.577,0 -2.59,0.543 -2.59,0.543"/><path id="path4324" fill="none" stroke="#fff" stroke-linecap="round" stroke-linejoin="round" stroke-opacity="1" stroke-width="2.25" d="m -70.669659,33.898029 c 0,0 -1.125,-0.544 -2.927,-0.544 -1.802,0 -2.478,0.544 -2.478,0.544"/><line id="line4326" x1="-66.885" x2="-66.885" y1="58.753" y2="23.725" fill="none" stroke="#fff" stroke-linecap="round" stroke-linejoin="round" stroke-opacity="1" stroke-width="2.25"/></g><g id="g4770" transform="matrix(1,0,0,-1,-30.386573,49.171266)"><g id="g4772" transform="translate(34.0803,-1006.42)"><polyline id="polyline4774" fill="none" stroke="#fff" stroke-linecap="round" stroke-linejoin="round" stroke-width="3.5" points="51.562 15.306 41.17 16.188 42.053 5.794" transform="matrix(-0.469241,0.469241,-0.469241,-0.469241,66.2906,1019.03)"/><path id="path4776" fill="none" stroke="#fff" stroke-dasharray="none" stroke-linecap="round" stroke-linejoin="round" stroke-miterlimit="4" stroke-opacity="1" stroke-width="2.5" d="m 39.363241,1033.1291 -0.05636,9.9115 -8.750608,0.067"/></g></g></g></svg>