<svg xmlns="http://www.w3.org/2000/svg" xmlns:svg="http://www.w3.org/2000/svg" id="svg4477" width="55.125" height="55" version="1.1" viewBox="0 0 55.125 55" xml:space="preserve"><metadata id="metadata4486"/><g id="g3795" transform="matrix(1.08,0,0,1.08,-4.2400002,-0.1600003)"><rect id="rect4-6" width="22.559" height="22.827" x="-25.914" y="29.086" fill="none" stroke="#fff" stroke-dasharray="none" stroke-linejoin="round" stroke-miterlimit="1.6" stroke-opacity="1" stroke-width="2.173" transform="matrix(0,-1,1,0,0,0)"/><line id="line10-4-3" x1="51.221" x2="29.11" y1="10.796" y2="10.796" fill="#aaa" stroke="#fff" stroke-dasharray="none" stroke-miterlimit="1.6" stroke-opacity="1" stroke-width="1.515"/><line id="line10-8" x1="40.382" x2="40.382" y1="25.305" y2="3.621" fill="#fff" fill-opacity="1" stroke="#fff" stroke-dasharray="none" stroke-miterlimit="1.6" stroke-opacity="1" stroke-width="1.552"/><path id="path3633-56" fill="#fff" fill-opacity="1" fill-rule="nonzero" stroke="none" d="m 43.155894,15.304686 a 2.7739254,1.9070737 0 1 1 -5.54785,0 2.7739254,1.9070737 0 1 1 5.54785,0 z"/><path id="path3633-7-1" fill="#fff" fill-opacity="1" fill-rule="nonzero" stroke="none" d="m 43.155894,19.118904 a 2.7739254,1.9070737 0 1 1 -5.54785,0 2.7739254,1.9070737 0 1 1 5.54785,0 z"/><path id="path3633-5-15" fill="#fff" fill-opacity="1" fill-rule="nonzero" stroke="none" d="m 43.155894,22.93312 a 2.7739254,1.9070737 0 1 1 -5.54785,0 2.7739254,1.9070737 0 1 1 5.54785,0 z"/><path id="path3633-4-98" fill="#fff" fill-opacity="1" fill-rule="nonzero" stroke="none" d="m 43.155894,6.3639495 a 2.7739254,1.9070737 0 1 1 -5.54785,0 2.7739254,1.9070737 0 1 1 5.54785,0 z"/><line id="line10-2-4" x1="46.919" x2="46.919" y1="25.305" y2="3.621" fill="#fff" fill-opacity="1" stroke="#fff" stroke-dasharray="none" stroke-miterlimit="1.6" stroke-opacity="1" stroke-width="1.552"/><path id="path3633-47-8" fill="#fff" fill-opacity="1" fill-rule="nonzero" stroke="none" d="m 49.693373,15.304686 a 2.7739254,1.9070737 0 1 1 -5.54785,0 2.7739254,1.9070737 0 1 1 5.54785,0 z"/><path id="path3633-7-4-1" fill="#fff" fill-opacity="1" fill-rule="nonzero" stroke="none" d="m 49.693373,19.118904 a 2.7739254,1.9070737 0 1 1 -5.54785,0 2.7739254,1.9070737 0 1 1 5.54785,0 z"/><path id="path3633-5-4-0" fill="#fff" fill-opacity="1" fill-rule="nonzero" stroke="none" d="m 49.693373,22.93312 a 2.7739254,1.9070737 0 1 1 -5.54785,0 2.7739254,1.9070737 0 1 1 5.54785,0 z"/><path id="path3633-4-0-3" fill="#fff" fill-opacity="1" fill-rule="nonzero" stroke="none" d="m 49.693373,6.3639495 a 2.7739254,1.9070737 0 1 1 -5.54785,0 2.7739254,1.9070737 0 1 1 5.54785,0 z"/><line id="line10-68-0" x1="33.844" x2="33.844" y1="25.305" y2="3.621" fill="#fff" fill-opacity="1" stroke="#fff" stroke-dasharray="none" stroke-miterlimit="1.6" stroke-opacity="1" stroke-width="1.552"/><path id="path3633-2-4" fill="#fff" fill-opacity="1" fill-rule="nonzero" stroke="none" d="m 36.618415,15.304686 a 2.7739254,1.9070737 0 1 1 -5.547849,0 2.7739254,1.9070737 0 1 1 5.547849,0 z"/><path id="path3633-7-6-4" fill="#fff" fill-opacity="1" fill-rule="nonzero" stroke="none" d="m 36.618415,19.118904 a 2.7739254,1.9070737 0 1 1 -5.547849,0 2.7739254,1.9070737 0 1 1 5.547849,0 z"/><path id="path3633-5-6-4" fill="#fff" fill-opacity="1" fill-rule="nonzero" stroke="none" d="m 36.618415,22.93312 a 2.7739254,1.9070737 0 1 1 -5.547849,0 2.7739254,1.9070737 0 1 1 5.547849,0 z"/><path id="path3633-4-5-4" fill="#fff" fill-opacity="1" fill-rule="nonzero" stroke="none" d="m 36.618415,6.3639495 a 2.7739254,1.9070737 0 1 1 -5.547849,0 2.7739254,1.9070737 0 1 1 5.547849,0 z"/></g><g id="g3036" transform="translate(-0.2743801,0.51351)"><path id="path3806" fill="none" stroke="#fff" stroke-dasharray="none" stroke-dashoffset="0" stroke-linecap="butt" stroke-linejoin="miter" stroke-miterlimit="4" stroke-opacity="1" stroke-width="2.5" d="M 9.5689397,38.952218 9.3902171,32.897964 M 25.663656,50.969805 3.6345541,51.23649 3.5243801,39.2454 l 5.851406,-6.358972 21.2578909,0 -0.110174,12.124478 z M 3.6345541,39.378743 l 21.4782339,0.266685 0.33052,10.924347 m -0.306426,-11.052011 5.531132,-6.638311"/><g id="g4770" transform="matrix(0,-1,-1,0,47.3087,85.9835)"><g id="g4772" transform="translate(34.0803,-1006.42)"><polyline id="polyline4774" fill="none" stroke="#fff" stroke-linecap="round" stroke-linejoin="round" stroke-width="3.5" points="51.562 15.306 41.17 16.188 42.053 5.794" transform="matrix(-0.469241,0.469241,-0.469241,-0.469241,66.2906,1019.03)"/><path id="path4776" fill="none" stroke="#fff" stroke-dasharray="none" stroke-linecap="round" stroke-linejoin="round" stroke-miterlimit="4" stroke-opacity="1" stroke-width="2.5" d="m 39.363241,1033.1291 -0.05636,9.9115 -8.750608,0.067"/></g></g></g></svg>