<svg xmlns="http://www.w3.org/2000/svg" xmlns:svg="http://www.w3.org/2000/svg" id="svg2" width="45" height="45" version="1.1"><rect id="rect4" width="10.439" height="43" x="-41.739" y="1" fill="#fff" fill-opacity="1" stroke="#000" stroke-width="2" transform="matrix(0,-1,1,0,0,0)"/><line id="line10-68" x1="22.5" x2="22.5" y1="39.5" y2="30.433" fill="#aaa" stroke="#000" stroke-dasharray="none" stroke-miterlimit="0" stroke-width="2"/><path id="path3633-3-49" fill="#000" fill-opacity="1" fill-rule="nonzero" stroke="none" d="m 26.5,39.195828 a 4,1.8542272 0 1 1 -7.999999,0 4,1.8542272 0 1 1 7.999999,0 z"/><line id="line10-68-3" x1="9.725" x2="9.725" y1="39.5" y2="30.433" fill="#aaa" stroke="#000" stroke-dasharray="none" stroke-miterlimit="0" stroke-width="2"/><path id="path3633-3-49-7" fill="#000" fill-opacity="1" fill-rule="nonzero" stroke="none" d="m 13.724576,39.195828 a 4,1.8542272 0 1 1 -7.9999992,0 4,1.8542272 0 1 1 7.9999992,0 z"/><line id="line10-68-3-8" x1="35.085" x2="35.085" y1="39.5" y2="30.433" fill="#aaa" stroke="#000" stroke-dasharray="none" stroke-miterlimit="0" stroke-width="2"/><path id="path3633-3-49-7-9" fill="#000" fill-opacity="1" fill-rule="nonzero" stroke="none" d="m 39.084746,39.195828 a 4,1.8542272 0 1 1 -7.999999,0 4,1.8542272 0 1 1 7.999999,0 z"/></svg>