<svg xmlns="http://www.w3.org/2000/svg" xmlns:svg="http://www.w3.org/2000/svg" id="svg2" width="45" height="45" version="1.1"><rect id="rect4" width="37.959" height="43" x="-41.48" y="1" fill="#fff" fill-opacity="1" stroke="#000" stroke-width="2" transform="matrix(0,-1,1,0,0,0)"/><line id="line10-4" x1="44.187" x2="1.254" y1="16.5" y2="16.5" fill="#aaa" stroke="#000" stroke-width="2"/><g id="g2971" transform="translate(0,0.06685352)"><line id="line10-68" x1="6.739" x2="6.739" y1="40.606" y2="4.261" fill="#aaa" stroke="#000" stroke-dasharray="none" stroke-miterlimit="0" stroke-width="2"/><path id="path3633-2" fill="#000" fill-opacity="1" fill-rule="nonzero" stroke="none" d="m 10.73925,26.747115 a 4,1.9646672 0 0 1 -8,0 4,1.9646672 0 1 1 8,0 z"/><path id="path3633-7-6" fill="#000" fill-opacity="1" fill-rule="nonzero" stroke="none" d="m 10.73925,30.676521 a 4,1.9646672 0 0 1 -8,0 4,1.9646672 0 1 1 8,0 z"/><path id="path3633-5-6" fill="#000" fill-opacity="1" fill-rule="nonzero" stroke="none" d="m 10.73925,34.605927 a 4,1.9646672 0 0 1 -8,0 4,1.9646672 0 1 1 8,0 z"/><path id="path3633-3-49" fill="#000" fill-opacity="1" fill-rule="nonzero" stroke="none" d="m 10.73925,38.535333 a 4,1.9646672 0 0 1 -8,0 4,1.9646672 0 1 1 8,0 z"/><path id="path3633-2-7" fill="#000" fill-opacity="1" fill-rule="nonzero" stroke="none" d="m 10.73925,6.1059274 a 4,1.9646672 0 0 1 -8,0 4,1.9646672 0 1 1 8,0 z"/><path id="path3633-7-6-6" fill="#000" fill-opacity="1" fill-rule="nonzero" stroke="none" d="m 10.73925,10.035333 a 4,1.9646672 0 0 1 -8,0 4,1.9646672 0 1 1 8,0 z"/><path id="path3633-3-49-6" fill="#000" fill-opacity="1" fill-rule="nonzero" stroke="none" d="m 10.73925,22.816439 a 4,1.9646672 0 0 1 -8,0 4,1.9646672 0 1 1 8,0 z"/></g><g id="g2971-9" transform="translate(10.448677,0.06685352)"><line id="line10-68-3" x1="6.739" x2="6.739" y1="40.606" y2="4.261" fill="#aaa" stroke="#000" stroke-dasharray="none" stroke-miterlimit="0" stroke-width="2"/><path id="path3633-2-74" fill="#000" fill-opacity="1" fill-rule="nonzero" stroke="none" d="m 10.73925,26.747115 a 4,1.9646672 0 0 1 -8,0 4,1.9646672 0 1 1 8,0 z"/><path id="path3633-7-6-5" fill="#000" fill-opacity="1" fill-rule="nonzero" stroke="none" d="m 10.73925,30.676521 a 4,1.9646672 0 0 1 -8,0 4,1.9646672 0 1 1 8,0 z"/><path id="path3633-5-6-2" fill="#000" fill-opacity="1" fill-rule="nonzero" stroke="none" d="m 10.73925,34.605927 a 4,1.9646672 0 0 1 -8,0 4,1.9646672 0 1 1 8,0 z"/><path id="path3633-3-49-5" fill="#000" fill-opacity="1" fill-rule="nonzero" stroke="none" d="m 10.73925,38.535333 a 4,1.9646672 0 0 1 -8,0 4,1.9646672 0 1 1 8,0 z"/><path id="path3633-2-7-4" fill="#000" fill-opacity="1" fill-rule="nonzero" stroke="none" d="m 10.73925,6.1059274 a 4,1.9646672 0 0 1 -8,0 4,1.9646672 0 1 1 8,0 z"/><path id="path3633-7-6-6-7" fill="#000" fill-opacity="1" fill-rule="nonzero" stroke="none" d="m 10.73925,10.035333 a 4,1.9646672 0 0 1 -8,0 4,1.9646672 0 1 1 8,0 z"/><path id="path3633-3-49-6-4" fill="#000" fill-opacity="1" fill-rule="nonzero" stroke="none" d="m 10.73925,22.816439 a 4,1.9646672 0 0 1 -8,0 4,1.9646672 0 1 1 8,0 z"/></g><g id="g2971-3" transform="translate(20.897353,0.06685352)"><line id="line10-68-0" x1="6.739" x2="6.739" y1="40.606" y2="4.261" fill="#aaa" stroke="#000" stroke-dasharray="none" stroke-miterlimit="0" stroke-width="2"/><path id="path3633-2-78" fill="#000" fill-opacity="1" fill-rule="nonzero" stroke="none" d="m 10.73925,26.747115 a 4,1.9646672 0 0 1 -8,0 4,1.9646672 0 1 1 8,0 z"/><path id="path3633-7-6-68" fill="#000" fill-opacity="1" fill-rule="nonzero" stroke="none" d="m 10.73925,30.676521 a 4,1.9646672 0 0 1 -8,0 4,1.9646672 0 1 1 8,0 z"/><path id="path3633-5-6-8" fill="#000" fill-opacity="1" fill-rule="nonzero" stroke="none" d="m 10.73925,34.605927 a 4,1.9646672 0 0 1 -8,0 4,1.9646672 0 1 1 8,0 z"/><path id="path3633-3-49-4" fill="#000" fill-opacity="1" fill-rule="nonzero" stroke="none" d="m 10.73925,38.535333 a 4,1.9646672 0 0 1 -8,0 4,1.9646672 0 1 1 8,0 z"/><path id="path3633-2-7-3" fill="#000" fill-opacity="1" fill-rule="nonzero" stroke="none" d="m 10.73925,6.1059274 a 4,1.9646672 0 0 1 -8,0 4,1.9646672 0 1 1 8,0 z"/><path id="path3633-7-6-6-1" fill="#000" fill-opacity="1" fill-rule="nonzero" stroke="none" d="m 10.73925,10.035333 a 4,1.9646672 0 0 1 -8,0 4,1.9646672 0 1 1 8,0 z"/><path id="path3633-3-49-6-49" fill="#000" fill-opacity="1" fill-rule="nonzero" stroke="none" d="m 10.73925,22.816439 a 4,1.9646672 0 0 1 -8,0 4,1.9646672 0 1 1 8,0 z"/></g><g id="g2971-0" transform="translate(31.346028,0.06685352)"><line id="line10-68-6" x1="6.739" x2="6.739" y1="40.606" y2="4.261" fill="#aaa" stroke="#000" stroke-dasharray="none" stroke-miterlimit="0" stroke-width="2"/><path id="path3633-2-8" fill="#000" fill-opacity="1" fill-rule="nonzero" stroke="none" d="m 10.73925,26.747115 a 4,1.9646672 0 0 1 -8,0 4,1.9646672 0 1 1 8,0 z"/><path id="path3633-7-6-9" fill="#000" fill-opacity="1" fill-rule="nonzero" stroke="none" d="m 10.73925,30.676521 a 4,1.9646672 0 0 1 -8,0 4,1.9646672 0 1 1 8,0 z"/><path id="path3633-5-6-26" fill="#000" fill-opacity="1" fill-rule="nonzero" stroke="none" d="m 10.73925,34.605927 a 4,1.9646672 0 0 1 -8,0 4,1.9646672 0 1 1 8,0 z"/><path id="path3633-3-49-64" fill="#000" fill-opacity="1" fill-rule="nonzero" stroke="none" d="m 10.73925,38.535333 a 4,1.9646672 0 0 1 -8,0 4,1.9646672 0 1 1 8,0 z"/><path id="path3633-2-7-9" fill="#000" fill-opacity="1" fill-rule="nonzero" stroke="none" d="m 10.73925,6.1059274 a 4,1.9646672 0 0 1 -8,0 4,1.9646672 0 1 1 8,0 z"/><path id="path3633-7-6-6-5" fill="#000" fill-opacity="1" fill-rule="nonzero" stroke="none" d="m 10.73925,10.035333 a 4,1.9646672 0 0 1 -8,0 4,1.9646672 0 1 1 8,0 z"/><path id="path3633-3-49-6-0" fill="#000" fill-opacity="1" fill-rule="nonzero" stroke="none" d="m 10.73925,22.816439 a 4,1.9646672 0 0 1 -8,0 4,1.9646672 0 1 1 8,0 z"/></g></svg>