<svg xmlns="http://www.w3.org/2000/svg" xmlns:cc="http://web.resource.org/cc/" xmlns:svg="http://www.w3.org/2000/svg" id="svg2" width="42" height="42" version="1.0"><metadata id="metadata7"/><g id="layer1"><g id="g6207" transform="matrix(1.1572772,0,0,1.1572772,-4.2605572,6.7107864)"><path id="path4267" fill="none" fill-rule="evenodd" stroke="#fff" stroke-dasharray="none" stroke-linecap="round" stroke-linejoin="round" stroke-miterlimit="4" stroke-opacity="1" stroke-width="2.592" d="M 5.4593796,20.224519 C 38.339735,20.224519 38.339735,20.472673 38.339735,20.472673"/><path id="path8177" fill="none" fill-rule="evenodd" stroke="#fff" stroke-dasharray="none" stroke-linecap="round" stroke-linejoin="round" stroke-miterlimit="4" stroke-opacity="1" stroke-width="2.592" d="M 21.479131,-4.0705774 C 21.479131,12.654873 21.479131,3.3232479 21.479131,9.1167959"/><path id="path9150" fill="none" fill-rule="evenodd" stroke="#fff" stroke-dasharray="none" stroke-linecap="round" stroke-linejoin="round" stroke-miterlimit="4" stroke-opacity="1" stroke-width="2.592" d="M 26.27629,4.3453376 C 20.432698,10.18893 23.693011,6.9286162 21.668843,8.9527852"/><path id="path9152" fill="none" fill-rule="evenodd" stroke="#fff" stroke-dasharray="none" stroke-linecap="round" stroke-linejoin="round" stroke-miterlimit="4" stroke-opacity="1" stroke-width="2.592" d="M 16.709475,4.3879849 C 22.553067,10.231577 19.292754,6.9712635 21.316922,8.9954325"/><path id="path9" fill="#fff" fill-opacity="1" stroke="#404040" stroke-opacity="1" stroke-width=".392" d="M 21.827577,10.566639 C 12.107601,10.566639 4.0271383,20.247579 4.0271383,20.247579 C 4.0271383,20.247579 12.107601,29.967555 21.827577,29.967555 C 31.547554,29.967555 39.628016,20.208542 39.628016,20.208542 C 39.628016,20.208542 31.547554,10.566639 21.827577,10.566639 z M 21.827577,27.078888 C 18.080116,27.078888 14.996268,24.034076 14.996268,20.247579 C 14.996268,16.500118 18.041081,13.41627 21.827577,13.41627 C 25.575038,13.41627 28.658886,16.461082 28.658886,20.247579 C 28.658886,24.034076 25.614075,27.078888 21.827577,27.078888 z" class="st0" overflow="visible"/><circle id="circle2362" cx="46.3" cy="25.4" r="7.9" fill="#404040" fill-opacity="1" stroke="#404040" stroke-opacity="1" stroke-width=".446" class="st0" overflow="visible" transform="matrix(0.8789325,0,0,0.8789325,-18.866997,-2.0353805)"/><circle id="circle11" cx="46.3" cy="25.4" r="7.9" fill="#fff" fill-opacity="1" stroke="#fff" stroke-opacity="1" stroke-width="1.005" class="st0" overflow="visible" transform="matrix(0.3903605,0,0,0.3903605,3.7538862,10.371458)"/></g></g></svg>