<svg xmlns="http://www.w3.org/2000/svg" xmlns:svg="http://www.w3.org/2000/svg" xmlns:xlink="http://www.w3.org/1999/xlink" id="svg2467" width="767" height="38" version="1.0"><defs id="defs2493"><linearGradient id="linearGradient3172" x1=".943" x2="104.377" y1="-31.67" y2="20.434" gradientTransform="matrix(0.7083638,0,0,1.0012565,0.1338084,32.632067)" gradientUnits="userSpaceOnUse" xlink:href="#linearGradient3166"/><linearGradient id="linearGradient3166"><stop id="stop3168" offset="0" stop-color="#fff" stop-opacity="1"/><stop id="stop3170" offset="1" stop-color="#ff0" stop-opacity="1"/></linearGradient></defs><path id="path4" fill="#ffd000" fill-opacity="1" fill-rule="evenodd" stroke="#e0a000" stroke-linecap="butt" stroke-linejoin="miter" stroke-opacity="1" stroke-width="1" d="M 15,37.5 C 11.5,37.5 8,35 5.5,32.5 3,30 0.5,26.5 0.5,23 l 0,-8 c 0,-3.25 2.5,-8.5 5,-10.5 2.5,-2 6,-4 9.5,-4 l 736.5,0 c 2.5,0 7,1 10.5,4 3.5,2.75 4.5,7.5 4.5,10.5 l 0,8 c 0,3.5 -2,7 -4.5,9.5 -2.5,2.5 -6.5,5 -10.5,5 L 15,37.5 z"/><g id="g6" transform="translate(656,65.625)"><path id="path8" fill="#ff4040" fill-opacity="1" fill-rule="nonzero" stroke="#ff4040" stroke-dasharray="none" stroke-linecap="square" stroke-linejoin="round" stroke-miterlimit="4" stroke-opacity="1" stroke-width="1" d="m 79.5,438.5 c 0,4.5 -3.75,8 -8.5,8 -4.5,0 -8.25,-3.5 -8.25,-8 0,-4.5 3.75,-8.25 8.25,-8.25 4.75,0 8.5,3.75 8.5,8.25 l 0,0 z" transform="translate(24,-485)"/><text style="text-align:start" id="text10" fill="#000" fill-opacity="1" stroke="none" font-family="Bitstream Vera Sans" font-size="12" font-weight="bold" text-anchor="start" writing-mode="lr-tb"><tspan id="tspan12" x="91" y="-42" font-size="12">X</tspan></text></g><text id="text2474" x="-48" fill="red" fill-opacity="1" stroke="none" font-family="Bitstream Vera Sans" font-size="12" font-style="normal" font-weight="normal"><tspan id="tspan2476" x="122" y="28" font-size="24">???</tspan></text><g id="g2478" transform="translate(6,0)"><path id="path2480" fill="#404040" fill-opacity="1" fill-rule="nonzero" stroke="none" d="M 44,15 10.5,15 27.5,-14 44,15 z" transform="translate(-4,20)"/><path id="path2482" fill="#e0e0e0" fill-opacity="1" fill-rule="nonzero" stroke="none" d="M 44,15 10.5,15 27.5,-14 44,15 z" transform="translate(1,17)"/><path id="path2484" fill="#ffe000" fill-opacity="1" fill-rule="nonzero" stroke="none" d="M 44,15 10.5,15 27.5,-14 44,15 z" transform="translate(-1,18)"/></g><text id="text2486" x="6" fill="#000" fill-opacity="1" stroke="none" font-family="Bitstream Vera Sans" font-size="12" font-style="normal" font-weight="normal"><tspan id="tspan2488" x="27" y="29" font-size="24">!</tspan></text><g id="g3009" transform="translate(73.5,2.344999)"><path id="path2458-4" fill="#fff" stroke="#000" stroke-dasharray="none" stroke-linecap="round" stroke-linejoin="round" stroke-miterlimit="4" stroke-opacity="1" stroke-width="2" d="m 27,27.08073 c 0,1.68237 -1.12132,3.074271 -3,3.074271 l -23,0 0,-26.9999999 8.8039216,0 1.6960784,2 15.5,0 0,21.9257289 0,0 z"/><path id="path2458" fill="#fff" stroke="#000" stroke-dasharray="none" stroke-linecap="round" stroke-linejoin="round" stroke-miterlimit="4" stroke-opacity="1" stroke-width="2" d="m 27,27.08073 c 0,1.68237 -1.12132,3.074271 -3,3.074271 l -23,0 0,-17 8.4852943,0 L 11.5,9.1550006 l 15.5,0 0,17.9257294 0,0 z"/></g></svg>