<svg xmlns="http://www.w3.org/2000/svg" xmlns:svg="http://www.w3.org/2000/svg" xmlns:xlink="http://www.w3.org/1999/xlink" id="svg2" width="767" height="38" version="1.0"><defs id="defs41"><linearGradient id="linearGradient3172" x1=".943" x2="104.377" y1="-31.67" y2="20.434" gradientTransform="matrix(0.7083638,0,0,1.0012565,0.1338084,32.632067)" gradientUnits="userSpaceOnUse" xlink:href="#linearGradient3166"/><linearGradient id="linearGradient3166"><stop id="stop3168" offset="0" stop-color="#fff" stop-opacity="1"/><stop id="stop3170" offset="1" stop-color="#ff0" stop-opacity="1"/></linearGradient><linearGradient id="linearGradient2558" x1=".943" x2="104.377" y1="-31.67" y2="20.434" gradientTransform="matrix(0.7083638,0,0,1.0012565,346.13381,24.632067)" gradientUnits="userSpaceOnUse" xlink:href="#linearGradient3166"/></defs><path id="path4" fill="#ffd000" fill-opacity="1" fill-rule="evenodd" stroke="#e0a000" stroke-linecap="butt" stroke-linejoin="miter" stroke-opacity="1" stroke-width="1" d="M 15,37.5 C 11.5,37.5 8,35 5.5,32.5 C 3,30 0.5,26.5 0.5,23 L 0.5,15 C 0.5,11.75 3,6.5 5.5,4.5 C 8,2.5 11.5,0.5 15,0.5 L 751.5,0.5 C 754,0.5 758.5,1.5 762,4.5 C 765.5,7.25 766.5,12 766.5,15 L 766.5,23 C 766.5,26.5 764.5,30 762,32.5 C 759.5,35 755.5,37.5 751.5,37.5 L 15,37.5 z"/><g id="g6" transform="translate(656,65.625)"><path id="path8" fill="#ff4040" fill-opacity="1" fill-rule="nonzero" stroke="#ff4040" stroke-dasharray="none" stroke-linecap="square" stroke-linejoin="round" stroke-miterlimit="4" stroke-opacity="1" stroke-width="1" d="M 79.5,438.5 C 79.5,443 75.75,446.5 71,446.5 C 66.5,446.5 62.75,443 62.75,438.5 C 62.75,434 66.5,430.25 71,430.25 C 75.75,430.25 79.5,434 79.5,438.5 L 79.5,438.5 z" transform="translate(24,-485)"/><text style="text-align:start" id="text10" fill="#000" fill-opacity="1" stroke="none" font-family="Bitstream Vera Sans" font-size="12" font-weight="bold" text-anchor="start" writing-mode="lr-tb"><tspan id="tspan12" x="91" y="-42" font-size="12">X</tspan></text></g><text id="text2445" fill="red" fill-opacity="1" stroke="none" font-family="Bitstream Vera Sans" font-size="12" font-style="normal" font-weight="normal"><tspan id="tspan2447" x="128" y="28" font-size="24">???</tspan></text><g id="g28" transform="translate(6,0)"><path id="path30" fill="#404040" fill-opacity="1" fill-rule="nonzero" stroke="none" stroke-dasharray="none" stroke-linecap="square" stroke-linejoin="miter" stroke-miterlimit="4" stroke-opacity="1" stroke-width="3" d="M 44,15 L 10.5,15 L 27.5,-14 L 44,15 z" opacity="1" transform="translate(-4,20)"/><path id="path32" fill="#e0e0e0" fill-opacity="1" fill-rule="nonzero" stroke="none" stroke-dasharray="none" stroke-linecap="square" stroke-linejoin="miter" stroke-miterlimit="4" stroke-opacity="1" stroke-width="3" d="M 44,15 L 10.5,15 L 27.5,-14 L 44,15 z" opacity="1" transform="translate(1,17)"/><path id="path34" fill="#ffe000" fill-opacity="1" fill-rule="nonzero" stroke="none" stroke-dasharray="none" stroke-linecap="square" stroke-linejoin="miter" stroke-miterlimit="4" stroke-opacity="1" stroke-width="3" d="M 44,15 L 10.5,15 L 27.5,-14 L 44,15 z" opacity="1" transform="translate(-1,18)"/></g><text id="text36" x="6" fill="#000" fill-opacity="1" stroke="none" stroke-linecap="butt" stroke-linejoin="miter" stroke-opacity="1" stroke-width="1" font-family="Bitstream Vera Sans" font-size="12" font-style="normal" font-weight="normal"><tspan id="tspan38" x="27" y="29" font-size="24">!</tspan></text><g id="clipping-image" display="block" transform="translate(64.520224,-8.9311472)"><g id="g2859" display="inline"><g id="g2861"><polygon id="polygon2863" fill="#fff" stroke="#010101" stroke-width="3.5" points="48.788 43.944 48.788 23.002 36.849 11.058 5.962 11.058 5.962 43.944 48.788 43.944"/><polyline id="polyline2865" fill="none" stroke="#010101" stroke-width="3.5" points="36.849 11.058 36.849 23.002 48.788 23.002"/></g></g><path id="path2867" fill="#010101" d="M 27.504,23.342 C 21.246,23.342 16.033,29.583 16.033,29.583 C 16.033,29.583 21.246,35.854 27.504,35.85 C 33.763,35.845 38.979,29.576 38.979,29.576 C 38.979,29.576 33.763,23.338 27.504,23.342 z M 27.504,33.984 C 25.081,33.984 23.117,32.018 23.117,29.595 C 23.117,27.176 25.081,25.207 27.504,25.207 C 29.924,25.207 31.89,27.176 31.89,29.595 C 31.89,32.019 29.924,33.984 27.504,33.984 z" display="inline"/><circle id="circle2869" cx="27.504" cy="29.597" r="1.991" fill="#010101" display="inline"/></g></svg>