<svg xmlns="http://www.w3.org/2000/svg" xmlns:svg="http://www.w3.org/2000/svg" id="svg2" width="767" height="38" version="1.0"><metadata id="metadata18"/><path id="path4" fill="#ffd000" fill-opacity="1" fill-rule="evenodd" stroke="#e0a000" stroke-linecap="butt" stroke-linejoin="miter" stroke-opacity="1" stroke-width="1" d="M 15,37.5 C 11.5,37.5 8,35 5.5,32.5 C 3,30 0.5,26.5 0.5,23 L 0.5,15 C 0.5,11.75 3,6.5 5.5,4.5 C 8,2.5 11.5,0.5 15,0.5 L 751.5,0.5 C 754,0.5 758.5,1.5 762,4.5 C 765.5,7.25 766.5,12 766.5,15 L 766.5,23 C 766.5,26.5 764.5,30 762,32.5 C 759.5,35 755.5,37.5 751.5,37.5 L 15,37.5 z"/><g id="g6" transform="translate(656,65.625)"><path id="path8" fill="#ff4040" fill-opacity="1" fill-rule="nonzero" stroke="#ff4040" stroke-dasharray="none" stroke-linecap="square" stroke-linejoin="round" stroke-miterlimit="4" stroke-opacity="1" stroke-width="1" d="M 79.5,438.5 C 79.5,443 75.75,446.5 71,446.5 C 66.5,446.5 62.75,443 62.75,438.5 C 62.75,434 66.5,430.25 71,430.25 C 75.75,430.25 79.5,434 79.5,438.5 L 79.5,438.5 z" transform="translate(24,-485)"/><text style="text-align:start" id="text10" fill="#000" fill-opacity="1" stroke="none" font-family="Bitstream Vera Sans" font-size="12" font-weight="bold" text-anchor="start" writing-mode="lr-tb"><tspan id="tspan12" x="91" y="-42" font-size="12">X</tspan></text></g><text id="text13" x="-124.765" y="-1.913" fill="red" fill-opacity="1" stroke="none" stroke-linecap="butt" stroke-linejoin="miter" stroke-opacity="1" stroke-width="1" font-family="Bitstream Vera Sans" font-size="13.122" font-style="normal" font-weight="normal"><tspan id="tspan15" x="61.124" y="28.704" font-size="26.243">&gt;1000000</tspan></text><g id="g17" transform="translate(6,0)"><path id="path19" fill="#404040" fill-opacity="1" fill-rule="nonzero" stroke="none" stroke-dasharray="none" stroke-linecap="square" stroke-linejoin="miter" stroke-miterlimit="4" stroke-opacity="1" stroke-width="3" d="M 44,15 L 10.5,15 L 27.5,-14 L 44,15 z" opacity="1" transform="translate(-4,20)"/><path id="path21" fill="#e0e0e0" fill-opacity="1" fill-rule="nonzero" stroke="none" stroke-dasharray="none" stroke-linecap="square" stroke-linejoin="miter" stroke-miterlimit="4" stroke-opacity="1" stroke-width="3" d="M 44,15 L 10.5,15 L 27.5,-14 L 44,15 z" opacity="1" transform="translate(1,17)"/><path id="path23" fill="#ffe000" fill-opacity="1" fill-rule="nonzero" stroke="none" stroke-dasharray="none" stroke-linecap="square" stroke-linejoin="miter" stroke-miterlimit="4" stroke-opacity="1" stroke-width="3" d="M 44,15 L 10.5,15 L 27.5,-14 L 44,15 z" opacity="1" transform="translate(-1,18)"/></g><text id="text25" x="6" fill="#000" fill-opacity="1" stroke="none" stroke-linecap="butt" stroke-linejoin="miter" stroke-opacity="1" stroke-width="1" font-family="Bitstream Vera Sans" font-size="12" font-style="normal" font-weight="normal"><tspan id="tspan27" x="27" y="29" font-size="24">!</tspan></text></svg>