<svg xmlns="http://www.w3.org/2000/svg" xmlns:svg="http://www.w3.org/2000/svg" xmlns:xlink="http://www.w3.org/1999/xlink" id="svg2" width="767" height="38" version="1.0"><defs id="defs41"><linearGradient id="linearGradient3172" x1="0" x2="104" y1="0" y2="21" gradientTransform="matrix(0.67,0,0,0.67,125.79816,9.965)" gradientUnits="userSpaceOnUse" xlink:href="#linearGradient3166"/><linearGradient id="linearGradient3166"><stop id="stop3168" offset="0" stop-color="#fff" stop-opacity="1"/><stop id="stop3170" offset="1" stop-color="#00f" stop-opacity="1"/></linearGradient></defs><path id="path4" fill="#ffd000" fill-opacity="1" fill-rule="evenodd" stroke="#e0a000" stroke-linecap="butt" stroke-linejoin="miter" stroke-opacity="1" stroke-width="1" d="M 15,37.5 C 11.5,37.5 8,35 5.5,32.5 C 3,30 0.5,26.5 0.5,23 L 0.5,15 C 0.5,11.75 3,6.5 5.5,4.5 C 8,2.5 11.5,0.5 15,0.5 L 751.5,0.5 C 754,0.5 758.5,1.5 762,4.5 C 765.5,7.25 766.5,12 766.5,15 L 766.5,23 C 766.5,26.5 764.5,30 762,32.5 C 759.5,35 755.5,37.5 751.5,37.5 L 15,37.5 z"/><g id="g6" transform="translate(656,65.625)"><path id="path8" fill="#ff4040" fill-opacity="1" fill-rule="nonzero" stroke="#ff4040" stroke-dasharray="none" stroke-linecap="square" stroke-linejoin="round" stroke-miterlimit="4" stroke-opacity="1" stroke-width="1" d="M 79.5,438.5 C 79.5,443 75.75,446.5 71,446.5 C 66.5,446.5 62.75,443 62.75,438.5 C 62.75,434 66.5,430.25 71,430.25 C 75.75,430.25 79.5,434 79.5,438.5 L 79.5,438.5 z" transform="translate(24,-485)"/><text style="text-align:start" id="text10" fill="#000" fill-opacity="1" stroke="none" font-family="Bitstream Vera Sans" font-size="12" font-weight="bold" text-anchor="start" writing-mode="lr-tb"><tspan id="tspan12" x="91" y="-42" font-size="12">X</tspan></text></g><g id="g14" transform="translate(0,-0.25)"><path id="path16" fill="#a0a0a0" fill-opacity="1" stroke="gray" stroke-dasharray="none" stroke-linecap="butt" stroke-linejoin="miter" stroke-miterlimit="4" stroke-opacity="1" stroke-width="1" d="M 122.5,8.5 L 133.5,8.5 L 133.5,12.5 L 131,12.5 L 131,10.5 L 124,10.5"/><path id="path18" fill="#a0a0a0" fill-opacity="1" stroke="gray" stroke-dasharray="none" stroke-linecap="butt" stroke-linejoin="miter" stroke-miterlimit="4" stroke-opacity="1" stroke-width="1" d="M 122.5,27 L 133.5,27 L 133.5,23 L 131,23 L 131,25 L 124,25"/><path id="path20" fill="#e0e0e0" fill-opacity="1" fill-rule="nonzero" stroke="gray" stroke-dasharray="none" stroke-linecap="butt" stroke-linejoin="miter" stroke-miterlimit="4" stroke-opacity="1" stroke-width="1.333" d="M 108,5.25 C 118.5,5.25 118.5,5.25 118.5,5.25 C 118.5,5.25 121.5,7 122.25,8 C 123,9 124.5,12 124.5,12 L 124.5,24.5 C 124.5,24.5 123,27 122.25,28 C 121.25,29 118.5,30.5 118.5,30.5 L 107.25,30.5 L 107.25,30 L 107.25,33.25 L 94,33.25 L 94,30.5 L 82.5,30.5 C 82.5,30.5 80,29 79,28 C 78,27 76.5,24.5 76.5,24.5 L 76.5,12 C 76.5,12 78,9 79,8 C 80,7 82.5,5.25 82.5,5.25 L 93.25,5.25 L 93.25,8.5 L 108,8.5 L 108,5.25 z"/></g><path id="path2498" fill="url(#linearGradient3172)" fill-opacity="1" stroke="#0000a0" stroke-dasharray="none" stroke-miterlimit="4" stroke-opacity="1" stroke-width="1.3" d="M 126.46816,10.3 L 129.81816,10.3 L 129.81816,12.98 L 134.50816,12.98 L 134.50816,10.3 L 195.81316,10.3 L 195.81316,23.7 L 134.50816,23.7 L 134.50816,21.02 L 129.81816,21.02 L 129.81816,23.7 L 126.46816,23.7 L 126.46816,10.3 z"/><path id="path22" fill="none" fill-opacity="1" fill-rule="nonzero" stroke="red" stroke-dasharray="none" stroke-linecap="square" stroke-linejoin="miter" stroke-miterlimit="4" stroke-opacity="1" stroke-width="2" d="M 205.82231,17.000001 C 205.82231,25.061518 185.73387,31.596667 160.95355,31.596667 C 136.17323,31.596667 116.08479,25.061518 116.08479,17.000001 C 116.08479,8.938484 136.17323,2.4033334 160.95355,2.4033334 C 185.73387,2.4033334 205.82231,8.938484 205.82231,17.000001 L 205.82231,17.000001 z" opacity="1"/><text id="text24" x="38" y="-.094" fill="red" fill-opacity="1" stroke="none" stroke-linecap="butt" stroke-linejoin="miter" stroke-opacity="1" stroke-width="1" font-family="Bitstream Vera Sans" font-size="12" font-style="normal" font-weight="normal"><tspan id="tspan26" x="208" y="27.906" font-size="24">???</tspan></text><g id="g28" transform="translate(6,0)"><path id="path30" fill="#404040" fill-opacity="1" fill-rule="nonzero" stroke="none" stroke-dasharray="none" stroke-linecap="square" stroke-linejoin="miter" stroke-miterlimit="4" stroke-opacity="1" stroke-width="3" d="M 44,15 L 10.5,15 L 27.5,-14 L 44,15 z" opacity="1" transform="translate(-4,20)"/><path id="path32" fill="#e0e0e0" fill-opacity="1" fill-rule="nonzero" stroke="none" stroke-dasharray="none" stroke-linecap="square" stroke-linejoin="miter" stroke-miterlimit="4" stroke-opacity="1" stroke-width="3" d="M 44,15 L 10.5,15 L 27.5,-14 L 44,15 z" opacity="1" transform="translate(1,17)"/><path id="path34" fill="#ffe000" fill-opacity="1" fill-rule="nonzero" stroke="none" stroke-dasharray="none" stroke-linecap="square" stroke-linejoin="miter" stroke-miterlimit="4" stroke-opacity="1" stroke-width="3" d="M 44,15 L 10.5,15 L 27.5,-14 L 44,15 z" opacity="1" transform="translate(-1,18)"/></g><text id="text36" x="6" fill="#000" fill-opacity="1" stroke="none" stroke-linecap="butt" stroke-linejoin="miter" stroke-opacity="1" stroke-width="1" font-family="Bitstream Vera Sans" font-size="12" font-style="normal" font-weight="normal"><tspan id="tspan38" x="27" y="29" font-size="24">!</tspan></text></svg>