<svg xmlns="http://www.w3.org/2000/svg" width="50" height="50"><defs><mask id="Mask" width="50" height="50" x="0" y="0" maskUnits="userSpaceOnUse"><path fill="#FFF" stroke="none" stroke-width="3.5" d="M33 5 C15,0 15,50 33,45 C-5,55 -5,-5 33 5 z"/><circle cx="20" cy="33" r="4" fill="none" stroke="#000" stroke-width="1.5"/><circle cx="20" cy="19" r="3" fill="none" stroke="#000" stroke-width="1.5"/></mask></defs><g><g transform="translate(-9.2,15.8) rotate(-30)"><circle cx="25" cy="25" r="21" fill="#FFF" stroke="#000" stroke-width="3"/><path fill="#000" stroke="none" stroke-width="3.5" d="M33 5 C15,0 15,50 33,45 C-5,55 -5,-5 33 5 z" mask="url(#Mask)"/><circle cx="20" cy="33" r="4" fill="none" stroke="#FFF" stroke-width="1.5"/><circle cx="20" cy="19" r="3" fill="none" stroke="#FFF" stroke-width="1.5"/><circle cx="27" cy="12" r="2" fill="none" stroke="#000" stroke-width="1"/><circle cx="26" cy="26" r="2.5" fill="none" stroke="#000" stroke-width="1.25"/><circle cx="28" cy="38" r="1.5" fill="none" stroke="#000" stroke-width=".75"/></g></g></svg>