<svg xmlns="http://www.w3.org/2000/svg" xmlns:svg="http://www.w3.org/2000/svg" id="svg2" width="55" height="55" version="1.1"><metadata id="metadata9"/><path id="path6" fill="#eee" fill-opacity="1" stroke="#eee" stroke-dasharray="none" stroke-linecap="round" stroke-linejoin="miter" stroke-miterlimit="4" stroke-opacity="1" stroke-width="0" d="m 26.862744,44.411727 a 4.4117648,4.4117648 0 1 1 -1.11e-4,-0.03148"/><path id="path8" fill="#eee" fill-opacity="1" stroke="#eee" stroke-dasharray="none" stroke-linecap="round" stroke-linejoin="miter" stroke-miterlimit="4" stroke-opacity="1" stroke-width="0" d="m 37.401961,44.411727 a 4.4117648,4.4117648 0 1 1 -1.13e-4,-0.03148"/><path id="path12" fill="#eee" fill-opacity="1" stroke="#eee" stroke-dasharray="none" stroke-linecap="round" stroke-linejoin="miter" stroke-miterlimit="4" stroke-opacity="1" stroke-width="0" d="m 47.5,44.411727 a 4.4117648,4.4117648 0 1 1 -1.13e-4,-0.03148"/><path id="path14" fill="#eee" fill-opacity="1" stroke="#eee" stroke-dasharray="none" stroke-linecap="round" stroke-linejoin="miter" stroke-miterlimit="4" stroke-opacity="1" stroke-width="0" d="m 16.323529,44.411727 a 4.4117648,4.4117648 0 1 1 -1.13e-4,-0.03148"/><path id="path38" fill="#a0a0a0" fill-opacity="1" stroke="#eee" stroke-dasharray="none" stroke-linecap="round" stroke-linejoin="miter" stroke-miterlimit="4" stroke-opacity="1" stroke-width="0" d="m 26.862744,10.588196 a 4.4117648,4.4117648 0 1 1 -1.11e-4,-0.03147"/><path id="path40" fill="#eee" fill-opacity="1" stroke="#eee" stroke-dasharray="none" stroke-linecap="round" stroke-linejoin="miter" stroke-miterlimit="4" stroke-opacity="1" stroke-width="0" d="m 37.401961,10.588196 a 4.4117648,4.4117648 0 1 1 -1.13e-4,-0.03147"/><path id="path44" fill="#eee" fill-opacity="1" stroke="#eee" stroke-dasharray="none" stroke-linecap="round" stroke-linejoin="miter" stroke-miterlimit="4" stroke-opacity="1" stroke-width="0" d="m 47.5,10.588196 a 4.4117648,4.4117648 0 1 1 -1.13e-4,-0.03147"/><path id="path46" fill="#eee" fill-opacity="1" stroke="#eee" stroke-dasharray="none" stroke-linecap="round" stroke-linejoin="miter" stroke-miterlimit="4" stroke-opacity="1" stroke-width="0" d="m 16.323529,10.588196 a 4.4117648,4.4117648 0 1 1 -1.13e-4,-0.03147"/><path id="path54" fill="#a0a0a0" fill-opacity="1" stroke="#eee" stroke-dasharray="none" stroke-linecap="round" stroke-linejoin="miter" stroke-miterlimit="4" stroke-opacity="1" stroke-width="0" d="m 26.862744,21.862706 a 4.4117648,4.4117648 0 1 1 -1.11e-4,-0.03148"/><path id="path56" fill="#a0a0a0" fill-opacity="1" stroke="#eee" stroke-dasharray="none" stroke-linecap="round" stroke-linejoin="miter" stroke-miterlimit="4" stroke-opacity="1" stroke-width="0" d="m 37.401961,21.862706 a 4.4117648,4.4117648 0 1 1 -1.13e-4,-0.03148"/><path id="path60" fill="#eee" fill-opacity="1" stroke="#eee" stroke-dasharray="none" stroke-linecap="round" stroke-linejoin="miter" stroke-miterlimit="4" stroke-opacity="1" stroke-width="0" d="m 47.5,21.862706 a 4.4117648,4.4117648 0 1 1 -1.13e-4,-0.03148"/><path id="path62" fill="#a0a0a0" fill-opacity="1" stroke="#eee" stroke-dasharray="none" stroke-linecap="round" stroke-linejoin="miter" stroke-miterlimit="4" stroke-opacity="1" stroke-width="0" d="m 16.323529,21.862706 a 4.4117648,4.4117648 0 1 1 -1.13e-4,-0.03148"/><path id="path70" fill="#a0a0a0" fill-opacity="1" stroke="#eee" stroke-dasharray="none" stroke-linecap="round" stroke-linejoin="miter" stroke-miterlimit="4" stroke-opacity="1" stroke-width="0" d="m 26.862744,33.137215 a 4.4117648,4.4117648 0 1 1 -1.11e-4,-0.03148"/><path id="path72" fill="#eee" fill-opacity="1" stroke="#eee" stroke-dasharray="none" stroke-linecap="round" stroke-linejoin="miter" stroke-miterlimit="4" stroke-opacity="1" stroke-width="0" d="m 37.401961,33.137215 a 4.4117648,4.4117648 0 1 1 -1.13e-4,-0.03148"/><path id="path76" fill="#eee" fill-opacity="1" stroke="#eee" stroke-dasharray="none" stroke-linecap="round" stroke-linejoin="miter" stroke-miterlimit="4" stroke-opacity="1" stroke-width="0" d="m 47.5,33.137215 a 4.4117648,4.4117648 0 1 1 -1.13e-4,-0.03148"/><path id="path78" fill="#eee" fill-opacity="1" stroke="#eee" stroke-dasharray="none" stroke-linecap="round" stroke-linejoin="miter" stroke-miterlimit="4" stroke-opacity="1" stroke-width="0" d="m 16.323529,33.137215 a 4.4117648,4.4117648 0 1 1 -1.13e-4,-0.03148"/><path id="rect3894" fill="#fff" fill-opacity="1" stroke="#282828" stroke-dasharray="none" stroke-linecap="round" stroke-linejoin="round" stroke-miterlimit="4" stroke-opacity="1" stroke-width="1.723" d="m 40.004296,28.657143 c -1.10877,0 -2.018763,0.909992 -2.018763,2.018761 l 0,4.629689 -3.283849,-3.283849 c -0.784855,-0.783184 -2.043082,-0.78485 -2.826264,0 -0.783183,0.784854 -0.784823,2.069998 0,2.85318 l 3.310766,3.28385 -4.683521,0 c -1.10877,0 -2.018762,0.909991 -2.018762,2.018762 0,1.108769 0.909992,1.991843 2.018762,1.991843 l 4.656605,0 -3.28385,3.283849 c -0.783181,0.784854 -0.784823,2.069999 0,2.85318 0.784855,0.783182 2.07,0.757938 2.85318,-0.02692 l 3.256933,-3.283849 0,4.683524 c 0,1.10877 0.909993,1.991844 2.018763,1.991844 1.108769,0 1.991843,-0.883074 1.991843,-1.991844 l 0,-4.71044 3.337683,3.310765 c 0.784853,0.783182 2.043082,0.784855 2.826262,0 0.783182,-0.784853 0.784858,-2.043082 0,-2.826262 l -3.310765,-3.28385 4.656607,0 c 1.10877,0 1.991844,-0.883074 1.991844,-1.991843 0,-1.108771 -0.883074,-2.018763 -1.991844,-2.018763 l -4.683523,0 3.310765,-3.337683 c 0.783182,-0.784854 0.784857,-2.016165 0,-2.799347 -0.784854,-0.78318 -2.043082,-0.811775 -2.826263,-0.02691 l -3.310766,3.337682 0,-4.656604 c 0,-1.10877 -0.883074,-2.018763 -1.991843,-2.018763 z"/></svg>