<svg xmlns="http://www.w3.org/2000/svg" xmlns:svg="http://www.w3.org/2000/svg" id="svg3105" width="114" height="88" version="1.1"><path id="path3124" fill="#fd6600" fill-opacity="1" stroke="#ac3d00" stroke-linecap="round" stroke-opacity="1" stroke-width="2" d="M 1,17 1,9 A 8,8 0 0 1 9,1 l 8,0 0,4 20,0 0,-4 60,0 8,0 a 8,8 0 0 1 8,8 l 0,8 -8,0 0,-6 -8,0 0,20 8,0 0,-6 8,0 0,34 -8,0 0,-6 -8,0 0,20 8,0 0,-6 8,0 0,8 a 8,8 0 0 1 -8,8 l -8,0 -60,0 -2,0 0,4 -16,0 0,-4 -2,0 -8,0 A 8,8 0 0 1 1,75 L 1,67 1,25 1,17 z"/><text id="text3126" fill="#000" font-family="Sans" font-size="20" text-anchor="end"><tspan id="tspan3128" x="94" y="49">add</tspan></text><text id="text3130" fill="#000" font-family="Sans" font-size="13.333" text-anchor="end"><tspan id="tspan3132" x="94" y="22.5">to</tspan></text><text id="text3134" fill="#000" font-family="Sans" font-size="13.333" text-anchor="end"><tspan id="tspan3136" x="94" y="64.5">value</tspan></text></svg>