<svg xmlns="http://www.w3.org/2000/svg" xmlns:svg="http://www.w3.org/2000/svg" id="svg3087" width="55" height="55" version="1.1"><metadata id="metadata3092"/><g id="layer1" transform="translate(0,-9)"><g id="scrollunlock" transform="translate(-296.34967,-57.15035)"><g id="g97" fill="none" stroke="#000" stroke-opacity="1" transform="matrix(-1,0,0,1,397.30607,44.1294)"><g id="g99" fill="none" stroke="#000" stroke-opacity="1" transform="translate(34.0803,-1006.42)"><polyline id="polyline101" fill="none" stroke="#000" stroke-linecap="round" stroke-linejoin="round" stroke-opacity="1" stroke-width="3.5" points="51.562 15.306 41.17 16.188 42.053 5.794" transform="matrix(-0.469241,0.469241,-0.469241,-0.469241,66.2906,1019.03)"/><path id="path103" fill="none" stroke="#000" stroke-dasharray="none" stroke-linecap="round" stroke-linejoin="round" stroke-miterlimit="4" stroke-opacity="1" stroke-width="2.5" d="m 39.36277,1033.1291 0,8.6738"/></g></g><g id="g107" fill="none" stroke="#000" stroke-opacity="1" transform="matrix(1,0,0,-1,284.47356,1149.5913)"><polyline id="polyline109" fill="none" stroke="#000" stroke-linecap="round" stroke-linejoin="round" stroke-opacity="1" stroke-width="3.5" points="51.562 15.306 41.17 16.188 42.053 5.794" transform="matrix(-0.469241,0.469241,-0.469241,-0.469241,66.2906,1019.03)"/><path id="path111" fill="none" stroke="#000" stroke-dasharray="none" stroke-linecap="round" stroke-linejoin="round" stroke-miterlimit="4" stroke-opacity="1" stroke-width="2.5" d="m 39.363241,1033.0937 0.0262,8.0241"/></g><g id="g113" fill="none" stroke="#000" stroke-opacity="1" transform="matrix(0,-1,1,0,276.82873,170.04644)"><g id="g115" fill="none" stroke="#000" stroke-opacity="1" transform="translate(34.0803,-1006.42)"><polyline id="polyline117" fill="none" stroke="#000" stroke-linecap="round" stroke-linejoin="round" stroke-opacity="1" stroke-width="3.5" points="51.562 15.306 41.17 16.188 42.053 5.794" transform="matrix(-0.469241,0.469241,-0.469241,-0.469241,66.2906,1019.03)"/><path id="path119" fill="none" stroke="#000" stroke-dasharray="none" stroke-linecap="round" stroke-linejoin="round" stroke-miterlimit="4" stroke-opacity="1" stroke-width="2.5" d="m 39.363241,1033.1291 -0.05636,9.4622"/></g></g><g id="g121" fill="none" stroke="#000" stroke-opacity="1" transform="matrix(0,-1,-1,0,370.8706,170.04644)"><g id="g123" fill="none" stroke="#000" stroke-opacity="1" transform="translate(34.0803,-1006.42)"><polyline id="polyline125" fill="none" stroke="#000" stroke-linecap="round" stroke-linejoin="round" stroke-opacity="1" stroke-width="3.5" points="51.562 15.306 41.17 16.188 42.053 5.794" transform="matrix(-0.469241,0.469241,-0.469241,-0.469241,66.2906,1019.03)"/><path id="path127" fill="none" stroke="#000" stroke-dasharray="none" stroke-linecap="round" stroke-linejoin="round" stroke-miterlimit="4" stroke-opacity="1" stroke-width="2.5" d="m 39.363241,1033.1291 -0.05636,9.4115"/></g></g><path id="path3160" d="m 312.59966,100.5625 0,-6.56249 q 0,-1.171875 0.82031,-1.992195 0.82031,-0.82031 1.99219,-0.82031 l 0,-3.75 q 0,-3.51563 2.46094,-5.97656 2.46093,-2.46094 5.97656,-2.46094 3.51562,0 5.97656,2.46094 2.46094,2.46093 2.46094,5.97656 l 0,3.75 q 1.17187,0 1.99219,0.82031 0.82031,0.82032 0.82031,1.992195 l 0,6.56249 q 0,3.51562 -2.46094,5.97656 Q 330.17778,109 326.66216,109 l -5.625,0 q -3.51563,0 -5.97656,-2.46094 -2.46094,-2.46094 -2.46094,-5.97656 z m 1.875,0 q 0,2.69531 1.93359,4.62891 1.9336,1.93359 4.62891,1.93359 l 5.625,0 q 2.69531,0 4.62891,-1.93359 1.93359,-1.9336 1.93359,-4.62891 l 0,-6.56249 q 0,-0.410165 -0.26369,-0.673845 -0.26368,-0.26369 -0.67384,-0.26369 l -16.875,0 q -0.41016,0 -0.67384,0.26369 -0.26369,0.26368 -0.26369,0.673845 l 0,6.56249 z m 2.8125,-9.374995 1.875,0 0,-3.75 q 0,-1.93359 1.37694,-3.31056 1.37694,-1.37697 3.31056,-1.37694 1.93362,3e-5 3.31056,1.37694 1.37694,1.37691 1.37694,3.31056 l 0,3.75 1.875,0 0,-3.75 q 0,-2.69531 -1.93359,-4.62891 -1.9336,-1.93359 -4.62891,-1.93359 -2.69531,0 -4.62891,1.93359 -1.93359,1.9336 -1.93359,4.62891 l 0,3.75 z m 2.8125,0 7.5,0 0,-3.75 q 0,-1.58203 -1.08397,-2.66603 -1.08397,-1.084 -2.66603,-1.08397 -1.58206,3e-5 -2.66603,1.08397 -1.08397,1.08394 -1.08397,2.66603 l 0,3.75 z m 1.875,7.499995 q 0,-0.76172 0.55663,-1.31836 0.55662,-0.55666 1.31837,-0.55663 0.76175,2e-5 1.31837,0.55663 0.55663,0.55658 0.55663,1.31836 0,0.82031 -0.64453,2.51953 -0.41016,1.23047 -1.23047,1.23047 -0.82031,0 -1.23047,-1.23047 -0.64453,-1.69922 -0.64453,-2.51953 z"/></g><g id="scrolllock" fill="none" stroke="#000" stroke-opacity="1" transform="matrix(-1,0,0,1,66.8761,-1019.4409)"><path id="path74" fill="none" stroke="#000" stroke-dasharray="none" stroke-linecap="round" stroke-linejoin="round" stroke-miterlimit="4" stroke-opacity="1" stroke-width="2.5" d="m 39.36277,1033.1291 0,8.6738"/></g><path id="path76" fill="none" stroke="#000" stroke-dasharray="none" stroke-linecap="round" stroke-linejoin="round" stroke-miterlimit="4" stroke-opacity="1" stroke-width="2.5" d="m 27.48713,59.347284 0.0262,-8.0241"/><g id="g78" fill="none" stroke="#000" stroke-opacity="1" transform="matrix(0,-1,1,0,-1025.9409,78.815794)"><path id="path80" fill="none" stroke="#000" stroke-dasharray="none" stroke-linecap="round" stroke-linejoin="round" stroke-miterlimit="4" stroke-opacity="1" stroke-width="2.5" d="m 39.363241,1033.1291 -0.05636,9.4622"/></g><g id="g82" fill="none" stroke="#000" stroke-opacity="1" transform="matrix(0,-1,-1,0,1080.9409,78.815794)"><path id="path84" fill="none" stroke="#000" stroke-dasharray="none" stroke-linecap="round" stroke-linejoin="round" stroke-miterlimit="4" stroke-opacity="1" stroke-width="2.5" d="m 39.363241,1033.1291 -0.05636,9.4115"/></g><path id="path86" d="m 16.24999,43.412154 0,-6.562494 q 0,-1.171875 0.82031,-1.992195 0.82031,-0.82031 1.99219,-0.82031 l 0,-3.75 q 0,-3.51563 2.46094,-5.97656 2.46093,-2.46094 5.97656,-2.46094 3.51562,0 5.97656,2.46094 2.46094,2.46093 2.46094,5.97656 l 0,3.75 q 1.17187,0 1.99219,0.82031 0.82031,0.82032 0.82031,1.992195 l 0,6.562494 q 0,3.51562 -2.46094,5.97656 -2.46094,2.46094 -5.97656,2.46094 l -5.625,0 q -3.51563,0 -5.97656,-2.46094 -2.46094,-2.46094 -2.46094,-5.97656 z m 1.875,0 q 0,2.69531 1.93359,4.62891 1.9336,1.93359 4.62891,1.93359 l 5.625,0 q 2.69531,0 4.62891,-1.93359 1.93359,-1.9336 1.93359,-4.62891 l 0,-6.562494 q 0,-0.410165 -0.26369,-0.673845 -0.26368,-0.26369 -0.67384,-0.26369 l -16.875,0 q -0.41016,0 -0.67384,0.26369 -0.26369,0.26368 -0.26369,0.673845 l 0,6.562494 z m 2.8125,-9.374999 1.875,0 0,-3.75 q 0,-1.93359 1.37694,-3.31056 1.37694,-1.37697 3.31056,-1.37694 1.93362,3e-5 3.31056,1.37694 1.37694,1.37691 1.37694,3.31056 l 0,3.75 1.875,0 0,-3.75 q 0,-2.69531 -1.93359,-4.62891 -1.9336,-1.93359 -4.62891,-1.93359 -2.69531,0 -4.62891,1.93359 -1.93359,1.9336 -1.93359,4.62891 l 0,3.75 z m 2.8125,0 7.5,0 0,-3.75 q 0,-1.58203 -1.08397,-2.66603 -1.08397,-1.084 -2.66603,-1.08397 -1.58206,3e-5 -2.66603,1.08397 -1.08397,1.08394 -1.08397,2.66603 l 0,3.75 z m 1.875,7.499995 q 0,-0.76172 0.55663,-1.31836 0.55662,-0.55666 1.31837,-0.55663 0.76175,2e-5 1.31837,0.55663 0.55663,0.55658 0.55663,1.31836 0,0.82031 -0.64453,2.519534 -0.41016,1.23047 -1.23047,1.23047 -0.82031,0 -1.23047,-1.23047 -0.64453,-1.699224 -0.64453,-2.519534 z"/></g></svg>