<svg xmlns="http://www.w3.org/2000/svg" xmlns:svg="http://www.w3.org/2000/svg" id="svg3257" width="122" height="46" version="1.1"><path id="path3276" fill="#1d8989" fill-opacity="1" stroke="#005459" stroke-linecap="round" stroke-opacity="1" stroke-width="2" d="M 1,17 1,9 A 8,8 0 0 1 9,1 l 8,0 0,4 20,0 0,-4 68,0 8,0 a 8,8 0 0 1 8,8 l 0,8 -8,0 0,-6 -8,0 0,20 8,0 0,-6 8,0 0,8 a 8,8 0 0 1 -8,8 l -8,0 -68,0 -2,0 0,4 -16,0 0,-4 -2,0 -8,0 A 8,8 0 0 1 1,33 l 0,-8 0,-8 z"/><text id="text3278" fill="#000" font-family="Sans" font-size="20" text-anchor="end"><tspan id="tspan3280" x="102" y="28">set hue</tspan></text></svg>