<svg xmlns="http://www.w3.org/2000/svg" xmlns:svg="http://www.w3.org/2000/svg" id="svg2" width="114" height="46" version="1.1"><metadata id="metadata31"/><defs id="defs29"><filter id="dropshadow" height="1.3" color-interpolation-filters="sRGB"><feGaussianBlur id="feGaussianBlur7" in="SourceAlpha" stdDeviation="3"/><feOffset id="feOffset9" dx="2" dy="2" result="offsetblur"/><feComponentTransfer id="feComponentTransfer11"><feFuncA id="feFuncA13" slope=".2" type="linear"/></feComponentTransfer><feMerge id="feMerge15"><feMergeNode id="feMergeNode17"/><feMergeNode id="feMergeNode19" in="SourceGraphic"/></feMerge></filter></defs><path id="path21" fill="#f06" fill-opacity="1" stroke="#ef003e" stroke-linecap="round" stroke-opacity="1" stroke-width="2" d="M 1,17 1,9 A 8,8 0 0 1 9,1 l 8,0 0,4 20,0 0,-4 60,0 8,0 a 8,8 0 0 1 8,8 l 0,8 0,8 0,8 a 8,8 0 0 1 -8,8 l -8,0 -60,0 -2,0 0,4 -16,0 0,-4 -2,0 -8,0 A 8,8 0 0 1 1,33 l 0,-8 z"/><text id="text23" fill="#000" font-family="Sans" font-size="20" text-anchor="end"><tspan id="tspan25" x="94" y="28">vspace</tspan></text></svg>