<svg xmlns="http://www.w3.org/2000/svg" xmlns:svg="http://www.w3.org/2000/svg" id="svg2" width="148" height="112" version="1.1"><path id="path21" fill="#e37a00" fill-opacity="1" stroke="#a34600" stroke-linecap="round" stroke-opacity="1" stroke-width="2" d="M 1,17 1,9 A 8,8 0 0 1 9,1 l 8,0 0,4 20,0 0,-4 18,0 76,0 8,0 a 8,8 0 0 1 8,8 l 0,8 0,18 a 16,16 0 0 0 -16,16 16,16 0 0 0 16,16 l 0,12 0,12 0,8 a 8,8 0 0 1 -8,8 l -8,0 -76,0 -18,0 -2,0 0,4 -16,0 0,-4 -2,0 -8,0 A 8,8 0 0 1 1,99 l 0,-8 z"/><text id="text23" fill="#000" font-family="sans-serif" font-size="20" text-anchor="start"><tspan id="tspan25" x="8" y="35.5">wait for</tspan></text></svg>