<svg xmlns="http://www.w3.org/2000/svg" xmlns:xlink="http://www.w3.org/1999/xlink" width="55" height="55" fill="#eee" stroke="#000" stroke-linecap="round" stroke-linejoin="round" stroke-width="3.5" viewBox="0 0 55 55"><path id="path6" fill="#eee" fill-opacity="1" stroke="#eee" stroke-dasharray="none" stroke-linecap="round" stroke-linejoin="miter" stroke-miterlimit="4" stroke-opacity="1" stroke-width="0" d="m 26.862744,44.411727 a 4.4117648,4.4117648 0 1 1 -1.11e-4,-0.03148"/><path id="path8" fill="#eee" fill-opacity="1" stroke="#eee" stroke-dasharray="none" stroke-linecap="round" stroke-linejoin="miter" stroke-miterlimit="4" stroke-opacity="1" stroke-width="0" d="m 37.401961,44.411727 a 4.4117648,4.4117648 0 1 1 -1.13e-4,-0.03148"/><path id="path12" fill="#eee" fill-opacity="1" stroke="#eee" stroke-dasharray="none" stroke-linecap="round" stroke-linejoin="miter" stroke-miterlimit="4" stroke-opacity="1" stroke-width="0" d="m 47.5,44.411727 a 4.4117648,4.4117648 0 1 1 -1.13e-4,-0.03148"/><path id="path14" fill="#eee" fill-opacity="1" stroke="#eee" stroke-dasharray="none" stroke-linecap="round" stroke-linejoin="miter" stroke-miterlimit="4" stroke-opacity="1" stroke-width="0" d="m 16.323529,44.411727 a 4.4117648,4.4117648 0 1 1 -1.13e-4,-0.03148"/><path id="path38" fill="#000" fill-opacity="1" stroke="#eee" stroke-dasharray="none" stroke-linecap="round" stroke-linejoin="miter" stroke-miterlimit="4" stroke-opacity="1" stroke-width="0" d="m 26.862744,10.588196 a 4.4117648,4.4117648 0 1 1 -1.11e-4,-0.03147"/><path id="path40" fill="#eee" fill-opacity="1" stroke="#eee" stroke-dasharray="none" stroke-linecap="round" stroke-linejoin="miter" stroke-miterlimit="4" stroke-opacity="1" stroke-width="0" d="m 37.401961,10.588196 a 4.4117648,4.4117648 0 1 1 -1.13e-4,-0.03147"/><path id="path44" fill="#eee" fill-opacity="1" stroke="#eee" stroke-dasharray="none" stroke-linecap="round" stroke-linejoin="miter" stroke-miterlimit="4" stroke-opacity="1" stroke-width="0" d="m 47.5,10.588196 a 4.4117648,4.4117648 0 1 1 -1.13e-4,-0.03147"/><path id="path46" fill="#eee" fill-opacity="1" stroke="#eee" stroke-dasharray="none" stroke-linecap="round" stroke-linejoin="miter" stroke-miterlimit="4" stroke-opacity="1" stroke-width="0" d="m 16.323529,10.588196 a 4.4117648,4.4117648 0 1 1 -1.13e-4,-0.03147"/><path id="path54" fill="#000" fill-opacity="1" stroke="#eee" stroke-dasharray="none" stroke-linecap="round" stroke-linejoin="miter" stroke-miterlimit="4" stroke-opacity="1" stroke-width="0" d="m 26.862744,21.862706 a 4.4117648,4.4117648 0 1 1 -1.11e-4,-0.03148"/><path id="path56" fill="#000" fill-opacity="1" stroke="#eee" stroke-dasharray="none" stroke-linecap="round" stroke-linejoin="miter" stroke-miterlimit="4" stroke-opacity="1" stroke-width="0" d="m 37.401961,21.862706 a 4.4117648,4.4117648 0 1 1 -1.13e-4,-0.03148"/><path id="path60" fill="#eee" fill-opacity="1" stroke="#eee" stroke-dasharray="none" stroke-linecap="round" stroke-linejoin="miter" stroke-miterlimit="4" stroke-opacity="1" stroke-width="0" d="m 47.5,21.862706 a 4.4117648,4.4117648 0 1 1 -1.13e-4,-0.03148"/><path id="path62" fill="#000" fill-opacity="1" stroke="#eee" stroke-dasharray="none" stroke-linecap="round" stroke-linejoin="miter" stroke-miterlimit="4" stroke-opacity="1" stroke-width="0" d="m 16.323529,21.862706 a 4.4117648,4.4117648 0 1 1 -1.13e-4,-0.03148"/><path id="path70" fill="#000" fill-opacity="1" stroke="#eee" stroke-dasharray="none" stroke-linecap="round" stroke-linejoin="miter" stroke-miterlimit="4" stroke-opacity="1" stroke-width="0" d="m 26.862744,33.137215 a 4.4117648,4.4117648 0 1 1 -1.11e-4,-0.03148"/><path id="path72" fill="#eee" fill-opacity="1" stroke="#eee" stroke-dasharray="none" stroke-linecap="round" stroke-linejoin="miter" stroke-miterlimit="4" stroke-opacity="1" stroke-width="0" d="m 37.401961,33.137215 a 4.4117648,4.4117648 0 1 1 -1.13e-4,-0.03148"/><path id="path76" fill="#eee" fill-opacity="1" stroke="#eee" stroke-dasharray="none" stroke-linecap="round" stroke-linejoin="miter" stroke-miterlimit="4" stroke-opacity="1" stroke-width="0" d="m 47.5,33.137215 a 4.4117648,4.4117648 0 1 1 -1.13e-4,-0.03148"/><path id="path78" fill="#eee" fill-opacity="1" stroke="#eee" stroke-dasharray="none" stroke-linecap="round" stroke-linejoin="miter" stroke-miterlimit="4" stroke-opacity="1" stroke-width="0" d="m 16.323529,33.137215 a 4.4117648,4.4117648 0 1 1 -1.13e-4,-0.03148"/></svg>