<svg xmlns="http://www.w3.org/2000/svg" xmlns:svg="http://www.w3.org/2000/svg" id="svg2" width="163" height="162" version="1.1"><metadata id="metadata7"/><g id="layer1" transform="translate(-211,-410.375)"><path id="path2985" fill="#fff" fill-opacity="1" stroke="#00f" stroke-dasharray="none" stroke-miterlimit="4" stroke-opacity="1" stroke-width="14" d="m 367,491.36218 c 0,40.86907 -33.35479,74 -74.5,74 -41.14521,0 -74.5,-33.13093 -74.5,-74 0,-40.86907 33.35479,-74 74.5,-74 41.14521,0 74.5,33.13093 74.5,74 z"/><rect id="rect2987" width="28.628" height="27.628" x="276.186" y="441.061" fill="#00f" fill-opacity="1" stroke="#00f" stroke-dasharray="none" stroke-miterlimit="4" stroke-opacity="1" stroke-width="1.372"/><path id="rect2989" fill="#00f" fill-opacity="1" stroke="#00f" stroke-dasharray="none" stroke-miterlimit="4" stroke-opacity="1" stroke-width=".722" d="m 265.53221,481.72395 -2.81791,12.30749 12.36652,-2.68091 -3.37892,-3.40494 9.34292,-9.34293 -2.19592,-2.19592 -9.32993,9.32992 -3.98673,-4.01274 z"/><rect id="rect2987-1" width="28.628" height="27.628" x="251.686" y="503.561" fill="#fff" fill-opacity="1" stroke="#00f" stroke-dasharray="5.144 5.144" stroke-dashoffset="0" stroke-miterlimit="4" stroke-opacity="1" stroke-width="2.572"/><rect id="rect2987-1-7" width="28.628" height="27.628" x="302.686" y="503.561" fill="#fff" fill-opacity="1" stroke="#00f" stroke-dasharray="5.144 5.144" stroke-dashoffset="0" stroke-miterlimit="4" stroke-opacity="1" stroke-width="2.572"/><path id="rect2989-4" fill="#00f" fill-opacity="1" stroke="#00f" stroke-dasharray="none" stroke-miterlimit="4" stroke-opacity="1" stroke-width=".722" d="m 313.84735,481.72395 2.81791,12.30749 -12.36652,-2.68091 3.37892,-3.40494 -9.34292,-9.34293 2.19592,-2.19592 9.32993,9.32992 3.98673,-4.01274 z"/></g></svg>