<svg xmlns="http://www.w3.org/2000/svg" width="101" height="112"><g><title>background</title><rect id="canvas_background" width="103" height="114" x="-1" y="-1" fill="none"/><g id="canvasGrid" width="100%" height="100%" x="0" y="0" display="none"><rect width="100%" height="100%" x="0" y="0" fill="url(#gridpattern)" stroke-width="0"/></g></g><g><title>Layer 1</title><path d="m89.5,57.949997l0,62"/><g id="svg_7"><line id="svg_6" x1="25.5" x2="25.5" y1="32.95" y2="94.95" fill="none" fill-opacity="null" stroke="#010101" stroke-linecap="null" stroke-linejoin="null" stroke-opacity="null" stroke-width="5.5" transform="rotate(12.0948, 25.5, 63.95)"/><line id="svg_4" x1="35.5" x2="79.5" y1="34.95" y2="77.95" fill="none" fill-opacity="null" stroke="#010101" stroke-linecap="null" stroke-linejoin="null" stroke-opacity="null" stroke-width="5.5"/><line id="svg_5" x1="23.5" x2="78.5" y1="96.95" y2="73.95" fill="none" fill-opacity="null" stroke="#010101" stroke-linecap="null" stroke-linejoin="null" stroke-opacity="null" stroke-width="5.5"/><path id="svg_1" fill="#FFF" stroke="#010101" stroke-width="1.5" d="m3,22.044128l20.626312,0l6.373688,-19.59491l6.373695,19.59491l20.626305,0l-16.687004,12.110184l6.374016,19.59491l-16.687012,-12.110512l-16.687012,12.110512l6.374023,-19.59491l-16.687012,-12.110184z"/><path id="svg_2" fill="#FFF" stroke="#010101" stroke-width="1.5" d="m2,85.238235l14.514809,0l4.485191,-13.789017l4.485199,13.789017l14.514801,0l-11.742706,8.521973l4.485413,13.789001l-11.742706,-8.522202l-11.742706,8.522202l4.485413,-13.789001l-11.742706,-8.521973z"/><path id="svg_3" fill="#FFF" stroke="#010101" stroke-width="1.5" d="m57,67.689705l16.042694,0l4.957306,-15.240486l4.957306,15.240486l16.042694,0l-12.978775,9.419029l4.95755,15.240486l-12.978775,-9.419289l-12.978775,9.419289l4.95755,-15.240486l-12.978775,-9.419029z"/></g></g></svg>