<svg xmlns="http://www.w3.org/2000/svg" xmlns:svg="http://www.w3.org/2000/svg" id="svg2" width="55" height="55" version="1.1" viewBox="0 0 55 55" xml:space="preserve"><metadata id="metadata25"/><g id="g4382" transform="matrix(0.55205508,0,0,0.55205508,44.618464,18.235971)"><g id="g4308" fill="none" stroke="#fff" stroke-opacity="1" transform="translate(-80.093659,12.220029)"><g id="g4310" fill="none" stroke="#fff" stroke-opacity="1"><path id="path4312" fill="none" stroke="#fff" stroke-linecap="round" stroke-linejoin="round" stroke-opacity="1" stroke-width="3.5" d="m 6.736,49.002 h 24.52 c 2.225,0 3.439,-1.447 3.439,-3.441 v -27.28 c 0,-1.73 -1.732,-3.441 -3.439,-3.441 h -4.389"/></g></g><g id="g4314" fill="none" stroke="#fff" stroke-opacity="1" transform="translate(-80.093659,12.220029)"><g id="g4316" fill="none" stroke="#fff" stroke-opacity="1"><path id="path4318" fill="none" stroke="#fff" stroke-linecap="round" stroke-linejoin="round" stroke-opacity="1" stroke-width="3.5" d="m 26.867,38.592 c 0,1.836 -1.345,3.201 -3.441,4.047 L 6.736,49.002 V 14.84 l 16.69,-8.599 c 2.228,-0.394 3.441,0.84 3.441,2.834 v 29.517 z"/></g></g><path id="path4320" fill="none" stroke="#fff" stroke-linecap="round" stroke-linejoin="round" stroke-opacity="1" stroke-width="2.25" d="m -70.669659,54.827029 c 0,0 -1.351,-0.543 -2.702,-0.543 -1.351,0 -2.703,0.543 -2.703,0.543"/><path id="path4322" fill="none" stroke="#fff" stroke-linecap="round" stroke-linejoin="round" stroke-opacity="1" stroke-width="2.25" d="m -70.669659,44.226029 c 0,0 -1.239,-0.543 -2.815,-0.543 -1.577,0 -2.59,0.543 -2.59,0.543"/><path id="path4324" fill="none" stroke="#fff" stroke-linecap="round" stroke-linejoin="round" stroke-opacity="1" stroke-width="2.25" d="m -70.669659,33.898029 c 0,0 -1.125,-0.544 -2.927,-0.544 -1.802,0 -2.478,0.544 -2.478,0.544"/><line id="line4326" x1="-66.885" x2="-66.885" y1="58.753" y2="23.725" fill="none" stroke="#fff" stroke-linecap="round" stroke-linejoin="round" stroke-opacity="1" stroke-width="2.25"/></g><g id="g3882" fill="none" stroke="#fff" stroke-dasharray="none" stroke-miterlimit="4" stroke-opacity="1" stroke-width="2.151" display="inline" transform="matrix(1.1623273,0,0,1.1623273,1.5747266,-12.63995)"><g id="g3884" fill="none" stroke="#fff" stroke-dasharray="none" stroke-miterlimit="4" stroke-opacity="1" stroke-width="2.151"><polygon id="polygon3886" fill="none" stroke="#fff" stroke-dasharray="none" stroke-miterlimit="4" stroke-opacity="1" stroke-width="2.151" points="15.204 35.189 43.041 35.189 43.041 21.577 35.281 13.812 15.204 13.812"/><polyline id="polyline3888" fill="none" stroke="#fff" stroke-dasharray="none" stroke-miterlimit="4" stroke-opacity="1" stroke-width="2.151" points="35.281 13.812 35.281 21.577 43.041 21.577"/></g></g><g id="g4770" transform="matrix(0,1,1,0,5.8287336,-30.080438)"><g id="g4772" transform="translate(34.0803,-1006.42)"><polyline id="polyline4774" fill="none" stroke="#fff" stroke-linecap="round" stroke-linejoin="round" stroke-width="3.5" points="51.562 15.306 41.17 16.188 42.053 5.794" transform="matrix(-0.469241,0.469241,-0.469241,-0.469241,66.2906,1019.03)"/><path id="path4776" fill="none" stroke="#fff" stroke-dasharray="none" stroke-linecap="round" stroke-linejoin="round" stroke-miterlimit="4" stroke-opacity="1" stroke-width="2.5" d="m 39.363241,1033.1291 -0.05636,9.9115 -8.750608,0.067"/></g></g><g id="g917" transform="matrix(0.1375,0,0,0.1375,23.577966,8.042373)"><path id="path4156" fill="none" fill-rule="evenodd" stroke="#fff" stroke-linecap="butt" stroke-linejoin="miter" stroke-opacity="1" stroke-width="1" d="M 9.6610169,48.305085 66.101695,48.813559 90.508475,40.677966 90,91.525424 67.118644,83.898305 6.6101695,84.915254 7.6271186,49.830508"/><path id="path6" fill="#fff" stroke="#fff" d="m 90.5,94 c -0.212,0 -0.42,-0.036 -0.632,-0.1 l -24,-8 C 65.056,85.636 64.5,84.86 64.5,84 V 48 c 0,-0.86 0.556,-1.624 1.368,-1.9 l 24,-8 c 0.612,-0.204 1.276,-0.092 1.8,0.268 0.524,0.38 0.832,0.976 0.832,1.612 v 52 c 0,0.648 -0.308,1.252 -0.832,1.62 C 91.324,93.872 90.916,94 90.5,94 Z m -22,-11.436 20,6.664 V 42.78 l -20,6.668 z"/><path id="path8" fill="#fff" stroke="#fff" d="m 21.5,48 c -9.92,0 -18,-8.08 -18,-18 0,-9.92 8.08,-18 18,-18 9.92,0 18,8.08 18,18 0,9.92 -8.08,18 -18,18 z m 0,-32 c -7.72,0 -14,6.28 -14,14 0,7.72 6.28,14 14,14 7.72,0 14,-6.28 14,-14 0,-7.72 -6.28,-14 -14,-14 z"/><path id="path10" fill="#fff" stroke="#fff" d="m 53.5,48 c -9.92,0 -18,-8.08 -18,-18 0,-9.92 8.08,-18 18,-18 9.92,0 18,8.08 18,18 0,9.92 -8.08,18 -18,18 z m 0,-32 c -7.72,0 -14,6.28 -14,14 0,7.72 6.28,14 14,14 7.72,0 14,-6.28 14,-14 0,-7.72 -6.28,-14 -14,-14 z"/><path id="path12" fill="#fff" stroke="#fff" d="m 8.252,108 c -0.584,0 -1.18,-0.264 -1.58,-0.764 -0.68,-0.88 -0.524,-2.132 0.348,-2.812 l 28.252,-22 c 0.872,-0.68 2.124,-0.524 2.804,0.352 0.68,0.876 0.524,2.124 -0.344,2.804 l -28.252,22 C 9.108,107.864 8.68,108 8.252,108 Z"/><path id="path14" fill="#fff" stroke="#fff" d="m 68.752,108 c -0.42,0 -0.86,-0.136 -1.232,-0.42 l -28.252,-22 C 38.4,84.9 38.244,83.656 38.924,82.776 c 0.68,-0.876 1.924,-1.032 2.804,-0.352 l 28.252,22 c 0.872,0.68 1.028,1.932 0.348,2.812 -0.4,0.5 -0.984,0.764 -1.576,0.764 z"/><path id="path16" fill="#fff" stroke="#fff" d="m 38.5,108 c -1.1,0 -2,-0.9 -2,-2 V 86 c 0,-1.1 0.9,-2 2,-2 1.1,0 2,0.9 2,2 v 20 c 0,1.1 -0.9,2 -2,2 z"/><path id="path4" fill="#fff" stroke="#fff" d="m 66.5,86 h -60 c -1.1,0 -2,-0.9 -2,-2 V 48 c 0,-1.1 0.9,-2 2,-2 h 60 c 1.1,0 2,0.9 2,2 v 36 c 0,1.1 -0.9,2 -2,2 z m -58,-4 h 56 V 50 h -56 z"/><ellipse id="path4158" cx="53.752" cy="29.548" fill="none" fill-opacity="1" stroke="#fff" stroke-opacity="1" stroke-width="1.037" rx="14.543" ry="13.797"/><ellipse id="path4158-6" cx="21.573" cy="29.394" fill="none" fill-opacity="1" stroke="#fff" stroke-opacity="1" stroke-width="1.037" rx="14.543" ry="13.797"/></g></svg>