<svg xmlns="http://www.w3.org/2000/svg" xmlns:svg="http://www.w3.org/2000/svg" id="svg2" width="78.074" height="78.074" x="0" y="0" enable-background="new 0 0 100 100" version="1.1" viewBox="5 -10 78.074 105.4" xml:space="preserve"><metadata id="metadata10"/><circle id="circle12" cx="50" cy="49.998" r="47" fill="none" stroke="#282828" stroke-miterlimit="10" stroke-opacity="1" stroke-width="6" d="m 97,49.998001 c 0,25.957383 -21.042617,47 -47,47 -25.957383,0 -47,-21.042617 -47,-47 C 3,24.040618 24.042617,2.9980011 50,2.9980011 c 25.957383,0 47,21.0426169 47,46.9999999 z" opacity="1" transform="translate(-5.262963,-7.3)"/><circle id="circle12-7" cx="50" cy="49.998" r="47" fill="none" stroke="#fff" stroke-dasharray="none" stroke-miterlimit="10" stroke-opacity="1" stroke-width=".675" d="m 97,49.998001 c 0,25.957383 -21.042617,47 -47,47 -25.957383,0 -47,-21.042617 -47,-47 C 3,24.040618 24.042617,2.9980011 50,2.9980011 c 25.957383,0 47,21.0426169 47,46.9999999 z" transform="matrix(1.0604081,0,0,1.0639729,-8.4842152,-10.305164)"/><circle id="circle12-7-4" cx="50" cy="49.998" r="47" fill="none" stroke="#fff" stroke-dasharray="none" stroke-miterlimit="10" stroke-opacity="1" stroke-width=".675" d="m 97,49.998001 c 0,25.957383 -21.042617,47 -47,47 -25.957383,0 -47,-21.042617 -47,-47 C 3,24.040618 24.042617,2.9980011 50,2.9980011 c 25.957383,0 47,21.0426169 47,46.9999999 z" transform="matrix(0.93048623,0,0,0.93887621,-1.8451134,-4.371295)"/><g id="activity-journal" fill="#fff" stroke="#000" display="block" transform="matrix(1.08,0,0,1.08,14.23749,12.661017)"><path id="path906" fill="#fff" stroke="#000" stroke-linecap="round" stroke-linejoin="round" stroke-width="3.5" d="M 45.866,44.669 C 45.866,47.18 44.338,49 41.534,49 H 12.077 V 6 h 29.458 c 2.15,0 4.332,2.154 4.332,4.33 z"/><line id="line908" x1="21.341" x2="21.341" y1="6.121" y2="48.881" fill="#fff" stroke="#000" stroke-linecap="round" stroke-linejoin="round" stroke-width="3.5"/><path id="path910" fill="#fff" stroke="#000" stroke-linecap="round" stroke-linejoin="round" stroke-width="3.5" d="m 7.384,14.464 c 0,0 2.084,0.695 4.17,0.695 2.086,0 4.173,-0.695 4.173,-0.695"/><path id="path912" fill="#fff" stroke="#000" stroke-linecap="round" stroke-linejoin="round" stroke-width="3.5" d="m 7.384,28.021 c 0,0 1.912,0.695 4.345,0.695 2.433,0 3.999,-0.695 3.999,-0.695"/><path id="path914" fill="#fff" stroke="#000" stroke-linecap="round" stroke-linejoin="round" stroke-width="3.5" d="m 7.384,41.232 c 0,0 1.736,0.695 4.518,0.695 2.781,0 3.825,-0.695 3.825,-0.695"/></g></svg>